<?xml version="1.0" encoding="UTF-8"?>
<!DOCTYPE svg PUBLIC "-//W3C//DTD SVG 1.1//EN" "http://www.w3.org/Graphics/SVG/1.1/DTD/svg11.dtd">
<svg width="160mm" height="90mm" viewBox="0 0 16000 9000" version="1.1" xmlns="http://www.w3.org/2000/svg" xmlns:xlink="http://www.w3.org/1999/xlink" stroke-width="28.222" stroke-linejoin="round" xml:space="preserve">
 <path fill="rgb(255,255,255)" stroke="none" d="M 7986,8991 L -13,8991 -13,-13 15984,-13 15984,8991 7986,8991 Z "/>
 <path fill="none" stroke="rgb(179,179,179)" stroke-linejoin="round" d="M 7720,7183 L 3050,7183 3050,1462 12389,1462 12389,7183 7720,7183 Z "/>
 <path fill="none" stroke="rgb(179,179,179)" stroke-linejoin="round" d="M 12389,7182 L 3050,7182 "/>
 <path fill="none" stroke="rgb(179,179,179)" stroke-linejoin="round" d="M 12389,6364 L 3050,6364 "/>
 <path fill="none" stroke="rgb(179,179,179)" stroke-linejoin="round" d="M 12389,5547 L 3050,5547 "/>
 <path fill="none" stroke="rgb(179,179,179)" stroke-linejoin="round" d="M 12389,4729 L 3050,4729 "/>
 <path fill="none" stroke="rgb(179,179,179)" stroke-linejoin="round" d="M 12389,3913 L 3050,3913 "/>
 <path fill="none" stroke="rgb(179,179,179)" stroke-linejoin="round" d="M 12389,3095 L 3050,3095 "/>
 <path fill="none" stroke="rgb(179,179,179)" stroke-linejoin="round" d="M 12389,2278 L 3050,2278 "/>
 <path fill="none" stroke="rgb(179,179,179)" stroke-linejoin="round" d="M 12389,1460 L 3050,1460 "/>
 <path fill="none" stroke="rgb(179,179,179)" stroke-linejoin="round" d="M 3050,7332 L 3050,7182 "/>
 <path fill="none" stroke="rgb(179,179,179)" stroke-linejoin="round" d="M 3050,7332 L 3050,7182 "/>
 <path fill="none" stroke="rgb(179,179,179)" stroke-linejoin="round" d="M 4087,7332 L 4087,7182 "/>
 <path fill="none" stroke="rgb(179,179,179)" stroke-linejoin="round" d="M 4087,7332 L 4087,7182 "/>
 <path fill="none" stroke="rgb(179,179,179)" stroke-linejoin="round" d="M 5125,7332 L 5125,7182 "/>
 <path fill="none" stroke="rgb(179,179,179)" stroke-linejoin="round" d="M 5125,7332 L 5125,7182 "/>
 <path fill="none" stroke="rgb(179,179,179)" stroke-linejoin="round" d="M 6163,7332 L 6163,7182 "/>
 <path fill="none" stroke="rgb(179,179,179)" stroke-linejoin="round" d="M 6163,7332 L 6163,7182 "/>
 <path fill="none" stroke="rgb(179,179,179)" stroke-linejoin="round" d="M 7201,7332 L 7201,7182 "/>
 <path fill="none" stroke="rgb(179,179,179)" stroke-linejoin="round" d="M 7201,7332 L 7201,7182 "/>
 <path fill="none" stroke="rgb(179,179,179)" stroke-linejoin="round" d="M 8237,7332 L 8237,7182 "/>
 <path fill="none" stroke="rgb(179,179,179)" stroke-linejoin="round" d="M 8237,7332 L 8237,7182 "/>
 <path fill="none" stroke="rgb(179,179,179)" stroke-linejoin="round" d="M 9275,7332 L 9275,7182 "/>
 <path fill="none" stroke="rgb(179,179,179)" stroke-linejoin="round" d="M 9275,7332 L 9275,7182 "/>
 <path fill="none" stroke="rgb(179,179,179)" stroke-linejoin="round" d="M 10313,7332 L 10313,7182 "/>
 <path fill="none" stroke="rgb(179,179,179)" stroke-linejoin="round" d="M 10313,7332 L 10313,7182 "/>
 <path fill="none" stroke="rgb(179,179,179)" stroke-linejoin="round" d="M 11351,7332 L 11351,7182 "/>
 <path fill="none" stroke="rgb(179,179,179)" stroke-linejoin="round" d="M 11351,7332 L 11351,7182 "/>
 <path fill="none" stroke="rgb(179,179,179)" stroke-linejoin="round" d="M 12389,7332 L 12389,7182 "/>
 <path fill="none" stroke="rgb(179,179,179)" stroke-linejoin="round" d="M 12389,7332 L 12389,7182 "/>
 <path fill="none" stroke="rgb(179,179,179)" stroke-linejoin="round" d="M 3050,7182 L 12389,7182 "/>
 <path fill="none" stroke="rgb(179,179,179)" stroke-linejoin="round" d="M 2900,7182 L 3050,7182 "/>
 <path fill="none" stroke="rgb(179,179,179)" stroke-linejoin="round" d="M 2900,7182 L 3050,7182 "/>
 <path fill="none" stroke="rgb(179,179,179)" stroke-linejoin="round" d="M 2900,6364 L 3050,6364 "/>
 <path fill="none" stroke="rgb(179,179,179)" stroke-linejoin="round" d="M 2900,6364 L 3050,6364 "/>
 <path fill="none" stroke="rgb(179,179,179)" stroke-linejoin="round" d="M 2900,5547 L 3050,5547 "/>
 <path fill="none" stroke="rgb(179,179,179)" stroke-linejoin="round" d="M 2900,5547 L 3050,5547 "/>
 <path fill="none" stroke="rgb(179,179,179)" stroke-linejoin="round" d="M 2900,4729 L 3050,4729 "/>
 <path fill="none" stroke="rgb(179,179,179)" stroke-linejoin="round" d="M 2900,4729 L 3050,4729 "/>
 <path fill="none" stroke="rgb(179,179,179)" stroke-linejoin="round" d="M 2900,3913 L 3050,3913 "/>
 <path fill="none" stroke="rgb(179,179,179)" stroke-linejoin="round" d="M 2900,3913 L 3050,3913 "/>
 <path fill="none" stroke="rgb(179,179,179)" stroke-linejoin="round" d="M 2900,3095 L 3050,3095 "/>
 <path fill="none" stroke="rgb(179,179,179)" stroke-linejoin="round" d="M 2900,3095 L 3050,3095 "/>
 <path fill="none" stroke="rgb(179,179,179)" stroke-linejoin="round" d="M 2900,2278 L 3050,2278 "/>
 <path fill="none" stroke="rgb(179,179,179)" stroke-linejoin="round" d="M 2900,2278 L 3050,2278 "/>
 <path fill="none" stroke="rgb(179,179,179)" stroke-linejoin="round" d="M 2900,1460 L 3050,1460 "/>
 <path fill="none" stroke="rgb(179,179,179)" stroke-linejoin="round" d="M 2900,1460 L 3050,1460 "/>
 <path fill="none" stroke="rgb(179,179,179)" stroke-linejoin="round" d="M 3050,7182 L 3050,1461 "/>
 <path fill="none" stroke="rgb(255,66,14)" stroke-width="60" stroke-linejoin="round" d="M 3568,6411 L 4606,5803 5644,5197 6682,4578 7720,3952 8756,3373 9794,2813 10832,2242 11870,1567 "/>
 <path fill="rgb(255,66,14)" stroke="none" d="M 3643,6411 L 3643,6408 3643,6405 3643,6401 3642,6398 3642,6395 3641,6392 3640,6389 3639,6386 3638,6383 3636,6380 3635,6377 3633,6374 3632,6371 3630,6368 3628,6366 3626,6363 3624,6361 3621,6358 3619,6356 3617,6354 3614,6352 3611,6350 3609,6348 3606,6346 3603,6345 3600,6343 3597,6342 3594,6341 3591,6340 3588,6339 3585,6338 3581,6337 3578,6337 3575,6337 3572,6336 3568,6336 3565,6336 3562,6337 3559,6337 3555,6337 3552,6338 3549,6339 3546,6340 3543,6341 3540,6342 3537,6343 3534,6345 3531,6346 3528,6348 3525,6350 3523,6352 3520,6354 3518,6356 3515,6358 3513,6361 3511,6363 3509,6366 3507,6368 3505,6371 3503,6374 3502,6377 3500,6380 3499,6383 3498,6386 3497,6389 3496,6392 3495,6395 3495,6398 3494,6401 3494,6405 3493,6408 3493,6411 3493,6415 3494,6418 3494,6421 3495,6424 3495,6427 3496,6431 3497,6434 3498,6437 3499,6440 3500,6443 3502,6446 3503,6449 3505,6452 3507,6454 3509,6457 3511,6459 3513,6462 3515,6464 3518,6467 3520,6469 3523,6471 3525,6473 3528,6474 3531,6476 3534,6478 3537,6479 3540,6481 3543,6482 3546,6483 3549,6484 3552,6484 3555,6485 3559,6486 3562,6486 3565,6486 3568,6486 3572,6486 3575,6486 3578,6486 3581,6485 3585,6484 3588,6484 3591,6483 3594,6482 3597,6481 3600,6479 3603,6478 3606,6476 3609,6474 3611,6473 3614,6471 3617,6469 3619,6467 3621,6464 3624,6462 3626,6459 3628,6457 3630,6454 3632,6452 3633,6449 3635,6446 3636,6443 3638,6440 3639,6437 3640,6434 3641,6431 3642,6427 3642,6424 3643,6421 3643,6418 3643,6415 3643,6411 Z "/>
 <path fill="none" stroke="rgb(255,66,14)" stroke-linejoin="round" d="M 3643,6411 L 3643,6408 3643,6405 3643,6401 3642,6398 3642,6395 3641,6392 3640,6389 3639,6386 3638,6383 3636,6380 3635,6377 3633,6374 3632,6371 3630,6368 3628,6366 3626,6363 3624,6361 3621,6358 3619,6356 3617,6354 3614,6352 3611,6350 3609,6348 3606,6346 3603,6345 3600,6343 3597,6342 3594,6341 3591,6340 3588,6339 3585,6338 3581,6337 3578,6337 3575,6337 3572,6336 3568,6336 3565,6336 3562,6337 3559,6337 3555,6337 3552,6338 3549,6339 3546,6340 3543,6341 3540,6342 3537,6343 3534,6345 3531,6346 3528,6348 3525,6350 3523,6352 3520,6354 3518,6356 3515,6358 3513,6361 3511,6363 3509,6366 3507,6368 3505,6371 3503,6374 3502,6377 3500,6380 3499,6383 3498,6386 3497,6389 3496,6392 3495,6395 3495,6398 3494,6401 3494,6405 3493,6408 3493,6411 3493,6415 3494,6418 3494,6421 3495,6424 3495,6427 3496,6431 3497,6434 3498,6437 3499,6440 3500,6443 3502,6446 3503,6449 3505,6452 3507,6454 3509,6457 3511,6459 3513,6462 3515,6464 3518,6467 3520,6469 3523,6471 3525,6473 3528,6474 3531,6476 3534,6478 3537,6479 3540,6481 3543,6482 3546,6483 3549,6484 3552,6484 3555,6485 3559,6486 3562,6486 3565,6486 3568,6486 3572,6486 3575,6486 3578,6486 3581,6485 3585,6484 3588,6484 3591,6483 3594,6482 3597,6481 3600,6479 3603,6478 3606,6476 3609,6474 3611,6473 3614,6471 3617,6469 3619,6467 3621,6464 3624,6462 3626,6459 3628,6457 3630,6454 3632,6452 3633,6449 3635,6446 3636,6443 3638,6440 3639,6437 3640,6434 3641,6431 3642,6427 3642,6424 3643,6421 3643,6418 3643,6415 3643,6411 Z "/>
 <path fill="rgb(255,66,14)" stroke="none" d="M 4681,5803 L 4681,5800 4681,5796 4681,5793 4680,5790 4679,5787 4679,5783 4678,5780 4677,5777 4675,5774 4674,5771 4673,5768 4671,5765 4669,5763 4668,5760 4666,5757 4664,5755 4661,5752 4659,5750 4657,5748 4654,5745 4652,5743 4649,5741 4646,5740 4644,5738 4641,5736 4638,5735 4635,5734 4632,5732 4629,5731 4626,5730 4622,5730 4619,5729 4616,5728 4613,5728 4609,5728 4606,5728 4603,5728 4600,5728 4596,5728 4593,5729 4590,5730 4587,5730 4584,5731 4581,5732 4577,5734 4574,5735 4572,5736 4569,5738 4566,5740 4563,5741 4561,5743 4558,5745 4555,5748 4553,5750 4551,5752 4549,5755 4547,5757 4545,5760 4543,5763 4541,5765 4540,5768 4538,5771 4537,5774 4536,5777 4535,5780 4534,5783 4533,5787 4532,5790 4532,5793 4531,5796 4531,5800 4531,5803 4531,5806 4531,5809 4532,5813 4532,5816 4533,5819 4534,5822 4535,5825 4536,5828 4537,5832 4538,5835 4540,5837 4541,5840 4543,5843 4545,5846 4547,5848 4549,5851 4551,5854 4553,5856 4555,5858 4558,5860 4561,5862 4563,5864 4566,5866 4569,5868 4572,5869 4574,5871 4577,5872 4581,5873 4584,5874 4587,5875 4590,5876 4593,5877 4596,5877 4600,5878 4603,5878 4606,5878 4609,5878 4613,5878 4616,5877 4619,5877 4622,5876 4626,5875 4629,5874 4632,5873 4635,5872 4638,5871 4641,5869 4644,5868 4646,5866 4649,5864 4652,5862 4654,5860 4657,5858 4659,5856 4661,5854 4664,5851 4666,5848 4668,5846 4669,5843 4671,5840 4673,5837 4674,5835 4675,5832 4677,5828 4678,5825 4679,5822 4679,5819 4680,5816 4681,5813 4681,5809 4681,5806 4681,5803 Z "/>
 <path fill="none" stroke="rgb(255,66,14)" stroke-linejoin="round" d="M 4681,5803 L 4681,5800 4681,5796 4681,5793 4680,5790 4679,5787 4679,5783 4678,5780 4677,5777 4675,5774 4674,5771 4673,5768 4671,5765 4669,5763 4668,5760 4666,5757 4664,5755 4661,5752 4659,5750 4657,5748 4654,5745 4652,5743 4649,5741 4646,5740 4644,5738 4641,5736 4638,5735 4635,5734 4632,5732 4629,5731 4626,5730 4622,5730 4619,5729 4616,5728 4613,5728 4609,5728 4606,5728 4603,5728 4600,5728 4596,5728 4593,5729 4590,5730 4587,5730 4584,5731 4581,5732 4577,5734 4574,5735 4572,5736 4569,5738 4566,5740 4563,5741 4561,5743 4558,5745 4555,5748 4553,5750 4551,5752 4549,5755 4547,5757 4545,5760 4543,5763 4541,5765 4540,5768 4538,5771 4537,5774 4536,5777 4535,5780 4534,5783 4533,5787 4532,5790 4532,5793 4531,5796 4531,5800 4531,5803 4531,5806 4531,5809 4532,5813 4532,5816 4533,5819 4534,5822 4535,5825 4536,5828 4537,5832 4538,5835 4540,5837 4541,5840 4543,5843 4545,5846 4547,5848 4549,5851 4551,5854 4553,5856 4555,5858 4558,5860 4561,5862 4563,5864 4566,5866 4569,5868 4572,5869 4574,5871 4577,5872 4581,5873 4584,5874 4587,5875 4590,5876 4593,5877 4596,5877 4600,5878 4603,5878 4606,5878 4609,5878 4613,5878 4616,5877 4619,5877 4622,5876 4626,5875 4629,5874 4632,5873 4635,5872 4638,5871 4641,5869 4644,5868 4646,5866 4649,5864 4652,5862 4654,5860 4657,5858 4659,5856 4661,5854 4664,5851 4666,5848 4668,5846 4669,5843 4671,5840 4673,5837 4674,5835 4675,5832 4677,5828 4678,5825 4679,5822 4679,5819 4680,5816 4681,5813 4681,5809 4681,5806 4681,5803 Z "/>
 <path fill="rgb(255,66,14)" stroke="none" d="M 5719,5197 L 5719,5193 5719,5190 5718,5187 5718,5184 5717,5180 5716,5177 5715,5174 5714,5171 5713,5168 5712,5165 5710,5162 5709,5159 5707,5156 5705,5154 5703,5151 5701,5148 5699,5146 5697,5144 5695,5141 5692,5139 5690,5137 5687,5135 5684,5133 5681,5132 5679,5130 5676,5129 5673,5127 5670,5126 5666,5125 5663,5124 5660,5123 5657,5123 5654,5122 5650,5122 5647,5122 5644,5122 5641,5122 5637,5122 5634,5122 5631,5123 5628,5123 5625,5124 5621,5125 5618,5126 5615,5127 5612,5129 5609,5130 5606,5132 5604,5133 5601,5135 5598,5137 5596,5139 5593,5141 5591,5144 5589,5146 5586,5148 5584,5151 5583,5154 5581,5156 5579,5159 5577,5162 5576,5165 5575,5168 5573,5171 5572,5174 5572,5177 5571,5180 5570,5184 5570,5187 5569,5190 5569,5193 5569,5197 5569,5200 5569,5203 5570,5206 5570,5210 5571,5213 5572,5216 5572,5219 5573,5222 5575,5225 5576,5228 5577,5231 5579,5234 5581,5237 5583,5240 5584,5242 5586,5245 5589,5247 5591,5250 5593,5252 5596,5254 5598,5256 5601,5258 5604,5260 5606,5262 5609,5263 5612,5265 5615,5266 5618,5267 5621,5268 5625,5269 5628,5270 5631,5270 5634,5271 5637,5271 5641,5271 5644,5272 5647,5271 5650,5271 5654,5271 5657,5270 5660,5270 5663,5269 5666,5268 5670,5267 5673,5266 5676,5265 5679,5263 5681,5262 5684,5260 5687,5258 5690,5256 5692,5254 5695,5252 5697,5250 5699,5247 5701,5245 5703,5242 5705,5240 5707,5237 5709,5234 5710,5231 5712,5228 5713,5225 5714,5222 5715,5219 5716,5216 5717,5213 5718,5210 5718,5206 5719,5203 5719,5200 5719,5197 Z "/>
 <path fill="none" stroke="rgb(255,66,14)" stroke-linejoin="round" d="M 5719,5197 L 5719,5193 5719,5190 5718,5187 5718,5184 5717,5180 5716,5177 5715,5174 5714,5171 5713,5168 5712,5165 5710,5162 5709,5159 5707,5156 5705,5154 5703,5151 5701,5148 5699,5146 5697,5144 5695,5141 5692,5139 5690,5137 5687,5135 5684,5133 5681,5132 5679,5130 5676,5129 5673,5127 5670,5126 5666,5125 5663,5124 5660,5123 5657,5123 5654,5122 5650,5122 5647,5122 5644,5122 5641,5122 5637,5122 5634,5122 5631,5123 5628,5123 5625,5124 5621,5125 5618,5126 5615,5127 5612,5129 5609,5130 5606,5132 5604,5133 5601,5135 5598,5137 5596,5139 5593,5141 5591,5144 5589,5146 5586,5148 5584,5151 5583,5154 5581,5156 5579,5159 5577,5162 5576,5165 5575,5168 5573,5171 5572,5174 5572,5177 5571,5180 5570,5184 5570,5187 5569,5190 5569,5193 5569,5197 5569,5200 5569,5203 5570,5206 5570,5210 5571,5213 5572,5216 5572,5219 5573,5222 5575,5225 5576,5228 5577,5231 5579,5234 5581,5237 5583,5240 5584,5242 5586,5245 5589,5247 5591,5250 5593,5252 5596,5254 5598,5256 5601,5258 5604,5260 5606,5262 5609,5263 5612,5265 5615,5266 5618,5267 5621,5268 5625,5269 5628,5270 5631,5270 5634,5271 5637,5271 5641,5271 5644,5272 5647,5271 5650,5271 5654,5271 5657,5270 5660,5270 5663,5269 5666,5268 5670,5267 5673,5266 5676,5265 5679,5263 5681,5262 5684,5260 5687,5258 5690,5256 5692,5254 5695,5252 5697,5250 5699,5247 5701,5245 5703,5242 5705,5240 5707,5237 5709,5234 5710,5231 5712,5228 5713,5225 5714,5222 5715,5219 5716,5216 5717,5213 5718,5210 5718,5206 5719,5203 5719,5200 5719,5197 Z "/>
 <path fill="rgb(255,66,14)" stroke="none" d="M 6757,4578 L 6757,4574 6756,4571 6756,4568 6756,4565 6755,4561 6754,4558 6753,4555 6752,4552 6751,4549 6750,4546 6748,4543 6747,4540 6745,4537 6743,4535 6741,4532 6739,4529 6737,4527 6735,4525 6732,4522 6730,4520 6727,4518 6725,4516 6722,4514 6719,4513 6716,4511 6713,4510 6710,4508 6707,4507 6704,4506 6701,4505 6698,4504 6695,4504 6692,4503 6688,4503 6685,4503 6682,4503 6678,4503 6675,4503 6672,4503 6669,4504 6665,4504 6662,4505 6659,4506 6656,4507 6653,4508 6650,4510 6647,4511 6644,4513 6641,4514 6639,4516 6636,4518 6634,4520 6631,4522 6629,4525 6626,4527 6624,4529 6622,4532 6620,4535 6618,4537 6617,4540 6615,4543 6614,4546 6612,4549 6611,4552 6610,4555 6609,4558 6609,4561 6608,4565 6607,4568 6607,4571 6607,4574 6607,4578 6607,4581 6607,4584 6607,4587 6608,4591 6609,4594 6609,4597 6610,4600 6611,4603 6612,4606 6614,4609 6615,4612 6617,4615 6618,4618 6620,4621 6622,4623 6624,4626 6626,4628 6629,4631 6631,4633 6634,4635 6636,4637 6639,4639 6641,4641 6644,4643 6647,4644 6650,4646 6653,4647 6656,4648 6659,4649 6662,4650 6665,4651 6669,4651 6672,4652 6675,4652 6678,4653 6682,4653 6685,4653 6688,4652 6692,4652 6695,4651 6698,4651 6701,4650 6704,4649 6707,4648 6710,4647 6713,4646 6716,4644 6719,4643 6722,4641 6725,4639 6727,4637 6730,4635 6732,4633 6735,4631 6737,4628 6739,4626 6741,4623 6743,4621 6745,4618 6747,4615 6748,4612 6750,4609 6751,4606 6752,4603 6753,4600 6754,4597 6755,4594 6756,4591 6756,4587 6756,4584 6757,4581 6757,4578 Z "/>
 <path fill="none" stroke="rgb(255,66,14)" stroke-linejoin="round" d="M 6757,4578 L 6757,4574 6756,4571 6756,4568 6756,4565 6755,4561 6754,4558 6753,4555 6752,4552 6751,4549 6750,4546 6748,4543 6747,4540 6745,4537 6743,4535 6741,4532 6739,4529 6737,4527 6735,4525 6732,4522 6730,4520 6727,4518 6725,4516 6722,4514 6719,4513 6716,4511 6713,4510 6710,4508 6707,4507 6704,4506 6701,4505 6698,4504 6695,4504 6692,4503 6688,4503 6685,4503 6682,4503 6678,4503 6675,4503 6672,4503 6669,4504 6665,4504 6662,4505 6659,4506 6656,4507 6653,4508 6650,4510 6647,4511 6644,4513 6641,4514 6639,4516 6636,4518 6634,4520 6631,4522 6629,4525 6626,4527 6624,4529 6622,4532 6620,4535 6618,4537 6617,4540 6615,4543 6614,4546 6612,4549 6611,4552 6610,4555 6609,4558 6609,4561 6608,4565 6607,4568 6607,4571 6607,4574 6607,4578 6607,4581 6607,4584 6607,4587 6608,4591 6609,4594 6609,4597 6610,4600 6611,4603 6612,4606 6614,4609 6615,4612 6617,4615 6618,4618 6620,4621 6622,4623 6624,4626 6626,4628 6629,4631 6631,4633 6634,4635 6636,4637 6639,4639 6641,4641 6644,4643 6647,4644 6650,4646 6653,4647 6656,4648 6659,4649 6662,4650 6665,4651 6669,4651 6672,4652 6675,4652 6678,4653 6682,4653 6685,4653 6688,4652 6692,4652 6695,4651 6698,4651 6701,4650 6704,4649 6707,4648 6710,4647 6713,4646 6716,4644 6719,4643 6722,4641 6725,4639 6727,4637 6730,4635 6732,4633 6735,4631 6737,4628 6739,4626 6741,4623 6743,4621 6745,4618 6747,4615 6748,4612 6750,4609 6751,4606 6752,4603 6753,4600 6754,4597 6755,4594 6756,4591 6756,4587 6756,4584 6757,4581 6757,4578 Z "/>
 <path fill="rgb(255,66,14)" stroke="none" d="M 7795,3952 L 7794,3949 7794,3945 7794,3942 7793,3939 7793,3936 7792,3933 7791,3929 7790,3926 7789,3923 7787,3920 7786,3917 7784,3914 7783,3912 7781,3909 7779,3906 7777,3904 7775,3901 7773,3899 7770,3897 7768,3894 7765,3892 7763,3890 7760,3889 7757,3887 7754,3885 7751,3884 7748,3883 7745,3881 7742,3880 7739,3879 7736,3879 7733,3878 7729,3878 7726,3877 7723,3877 7720,3877 7716,3877 7713,3877 7710,3878 7706,3878 7703,3879 7700,3879 7697,3880 7694,3881 7691,3883 7688,3884 7685,3885 7682,3887 7679,3889 7676,3890 7674,3892 7671,3894 7669,3897 7666,3899 7664,3901 7662,3904 7660,3906 7658,3909 7656,3912 7655,3914 7653,3917 7652,3920 7650,3923 7649,3926 7648,3929 7647,3933 7646,3936 7646,3939 7645,3942 7645,3945 7645,3949 7645,3952 7645,3955 7645,3958 7645,3962 7646,3965 7646,3968 7647,3971 7648,3974 7649,3978 7650,3981 7652,3984 7653,3987 7655,3989 7656,3992 7658,3995 7660,3998 7662,4000 7664,4003 7666,4005 7669,4007 7671,4009 7674,4011 7676,4013 7679,4015 7682,4017 7685,4018 7688,4020 7691,4021 7694,4022 7697,4023 7700,4024 7703,4025 7706,4026 7710,4026 7713,4027 7716,4027 7720,4027 7723,4027 7726,4027 7729,4026 7733,4026 7736,4025 7739,4024 7742,4023 7745,4022 7748,4021 7751,4020 7754,4018 7757,4017 7760,4015 7763,4013 7765,4011 7768,4009 7770,4007 7773,4005 7775,4003 7777,4000 7779,3998 7781,3995 7783,3992 7784,3989 7786,3987 7787,3984 7789,3981 7790,3978 7791,3974 7792,3971 7793,3968 7793,3965 7794,3962 7794,3958 7794,3955 7795,3952 Z "/>
 <path fill="none" stroke="rgb(255,66,14)" stroke-linejoin="round" d="M 7795,3952 L 7794,3949 7794,3945 7794,3942 7793,3939 7793,3936 7792,3933 7791,3929 7790,3926 7789,3923 7787,3920 7786,3917 7784,3914 7783,3912 7781,3909 7779,3906 7777,3904 7775,3901 7773,3899 7770,3897 7768,3894 7765,3892 7763,3890 7760,3889 7757,3887 7754,3885 7751,3884 7748,3883 7745,3881 7742,3880 7739,3879 7736,3879 7733,3878 7729,3878 7726,3877 7723,3877 7720,3877 7716,3877 7713,3877 7710,3878 7706,3878 7703,3879 7700,3879 7697,3880 7694,3881 7691,3883 7688,3884 7685,3885 7682,3887 7679,3889 7676,3890 7674,3892 7671,3894 7669,3897 7666,3899 7664,3901 7662,3904 7660,3906 7658,3909 7656,3912 7655,3914 7653,3917 7652,3920 7650,3923 7649,3926 7648,3929 7647,3933 7646,3936 7646,3939 7645,3942 7645,3945 7645,3949 7645,3952 7645,3955 7645,3958 7645,3962 7646,3965 7646,3968 7647,3971 7648,3974 7649,3978 7650,3981 7652,3984 7653,3987 7655,3989 7656,3992 7658,3995 7660,3998 7662,4000 7664,4003 7666,4005 7669,4007 7671,4009 7674,4011 7676,4013 7679,4015 7682,4017 7685,4018 7688,4020 7691,4021 7694,4022 7697,4023 7700,4024 7703,4025 7706,4026 7710,4026 7713,4027 7716,4027 7720,4027 7723,4027 7726,4027 7729,4026 7733,4026 7736,4025 7739,4024 7742,4023 7745,4022 7748,4021 7751,4020 7754,4018 7757,4017 7760,4015 7763,4013 7765,4011 7768,4009 7770,4007 7773,4005 7775,4003 7777,4000 7779,3998 7781,3995 7783,3992 7784,3989 7786,3987 7787,3984 7789,3981 7790,3978 7791,3974 7792,3971 7793,3968 7793,3965 7794,3962 7794,3958 7794,3955 7795,3952 Z "/>
 <path fill="rgb(255,66,14)" stroke="none" d="M 8831,3373 L 8831,3370 8831,3366 8831,3363 8830,3360 8829,3357 8829,3353 8828,3350 8827,3347 8826,3344 8824,3341 8823,3338 8821,3335 8820,3332 8818,3330 8816,3327 8814,3325 8812,3322 8809,3320 8807,3317 8804,3315 8802,3313 8799,3311 8797,3310 8794,3308 8791,3306 8788,3305 8785,3303 8782,3302 8779,3301 8776,3300 8773,3300 8769,3299 8766,3298 8763,3298 8760,3298 8756,3298 8753,3298 8750,3298 8746,3298 8743,3299 8740,3300 8737,3300 8734,3301 8731,3302 8728,3303 8725,3305 8722,3306 8719,3308 8716,3310 8713,3311 8711,3313 8708,3315 8706,3317 8703,3320 8701,3322 8699,3325 8697,3327 8695,3330 8693,3332 8691,3335 8690,3338 8688,3341 8687,3344 8686,3347 8685,3350 8684,3353 8683,3357 8682,3360 8682,3363 8682,3366 8681,3370 8681,3373 8681,3376 8682,3379 8682,3383 8682,3386 8683,3389 8684,3392 8685,3395 8686,3398 8687,3401 8688,3404 8690,3407 8691,3410 8693,3413 8695,3416 8697,3418 8699,3421 8701,3423 8703,3426 8706,3428 8708,3430 8711,3432 8713,3434 8716,3436 8719,3438 8722,3439 8725,3441 8728,3442 8731,3443 8734,3444 8737,3445 8740,3446 8743,3447 8746,3447 8750,3447 8753,3448 8756,3448 8760,3448 8763,3447 8766,3447 8769,3447 8773,3446 8776,3445 8779,3444 8782,3443 8785,3442 8788,3441 8791,3439 8794,3438 8797,3436 8799,3434 8802,3432 8804,3430 8807,3428 8809,3426 8812,3423 8814,3421 8816,3418 8818,3416 8820,3413 8821,3410 8823,3407 8824,3404 8826,3401 8827,3398 8828,3395 8829,3392 8829,3389 8830,3386 8831,3383 8831,3379 8831,3376 8831,3373 Z "/>
 <path fill="none" stroke="rgb(255,66,14)" stroke-linejoin="round" d="M 8831,3373 L 8831,3370 8831,3366 8831,3363 8830,3360 8829,3357 8829,3353 8828,3350 8827,3347 8826,3344 8824,3341 8823,3338 8821,3335 8820,3332 8818,3330 8816,3327 8814,3325 8812,3322 8809,3320 8807,3317 8804,3315 8802,3313 8799,3311 8797,3310 8794,3308 8791,3306 8788,3305 8785,3303 8782,3302 8779,3301 8776,3300 8773,3300 8769,3299 8766,3298 8763,3298 8760,3298 8756,3298 8753,3298 8750,3298 8746,3298 8743,3299 8740,3300 8737,3300 8734,3301 8731,3302 8728,3303 8725,3305 8722,3306 8719,3308 8716,3310 8713,3311 8711,3313 8708,3315 8706,3317 8703,3320 8701,3322 8699,3325 8697,3327 8695,3330 8693,3332 8691,3335 8690,3338 8688,3341 8687,3344 8686,3347 8685,3350 8684,3353 8683,3357 8682,3360 8682,3363 8682,3366 8681,3370 8681,3373 8681,3376 8682,3379 8682,3383 8682,3386 8683,3389 8684,3392 8685,3395 8686,3398 8687,3401 8688,3404 8690,3407 8691,3410 8693,3413 8695,3416 8697,3418 8699,3421 8701,3423 8703,3426 8706,3428 8708,3430 8711,3432 8713,3434 8716,3436 8719,3438 8722,3439 8725,3441 8728,3442 8731,3443 8734,3444 8737,3445 8740,3446 8743,3447 8746,3447 8750,3447 8753,3448 8756,3448 8760,3448 8763,3447 8766,3447 8769,3447 8773,3446 8776,3445 8779,3444 8782,3443 8785,3442 8788,3441 8791,3439 8794,3438 8797,3436 8799,3434 8802,3432 8804,3430 8807,3428 8809,3426 8812,3423 8814,3421 8816,3418 8818,3416 8820,3413 8821,3410 8823,3407 8824,3404 8826,3401 8827,3398 8828,3395 8829,3392 8829,3389 8830,3386 8831,3383 8831,3379 8831,3376 8831,3373 Z "/>
 <path fill="rgb(255,66,14)" stroke="none" d="M 9869,2813 L 9869,2810 9869,2807 9868,2804 9868,2800 9867,2797 9866,2794 9866,2791 9865,2788 9863,2785 9862,2782 9861,2779 9859,2776 9857,2773 9855,2770 9854,2768 9852,2765 9849,2763 9847,2760 9845,2758 9842,2756 9840,2754 9837,2752 9834,2750 9832,2748 9829,2747 9826,2745 9823,2744 9820,2743 9817,2742 9813,2741 9810,2740 9807,2740 9804,2739 9801,2739 9797,2738 9794,2738 9791,2738 9788,2739 9784,2739 9781,2740 9778,2740 9775,2741 9772,2742 9768,2743 9765,2744 9762,2745 9759,2747 9757,2748 9754,2750 9751,2752 9748,2754 9746,2756 9743,2758 9741,2760 9739,2763 9737,2765 9735,2768 9733,2770 9731,2773 9729,2776 9728,2779 9726,2782 9725,2785 9724,2788 9723,2791 9722,2794 9721,2797 9720,2800 9720,2804 9719,2807 9719,2810 9719,2813 9719,2817 9719,2820 9720,2823 9720,2826 9721,2830 9722,2833 9723,2836 9724,2839 9725,2842 9726,2845 9728,2848 9729,2851 9731,2854 9733,2856 9735,2859 9737,2862 9739,2864 9741,2866 9743,2869 9746,2871 9748,2873 9751,2875 9754,2877 9757,2878 9759,2880 9762,2881 9765,2883 9768,2884 9772,2885 9775,2886 9778,2887 9781,2887 9784,2888 9788,2888 9791,2888 9794,2888 9797,2888 9801,2888 9804,2888 9807,2887 9810,2887 9813,2886 9817,2885 9820,2884 9823,2883 9826,2881 9829,2880 9832,2878 9834,2877 9837,2875 9840,2873 9842,2871 9845,2869 9847,2866 9849,2864 9852,2862 9854,2859 9855,2856 9857,2854 9859,2851 9861,2848 9862,2845 9863,2842 9865,2839 9866,2836 9866,2833 9867,2830 9868,2826 9868,2823 9869,2820 9869,2817 9869,2813 Z "/>
 <path fill="none" stroke="rgb(255,66,14)" stroke-linejoin="round" d="M 9869,2813 L 9869,2810 9869,2807 9868,2804 9868,2800 9867,2797 9866,2794 9866,2791 9865,2788 9863,2785 9862,2782 9861,2779 9859,2776 9857,2773 9855,2770 9854,2768 9852,2765 9849,2763 9847,2760 9845,2758 9842,2756 9840,2754 9837,2752 9834,2750 9832,2748 9829,2747 9826,2745 9823,2744 9820,2743 9817,2742 9813,2741 9810,2740 9807,2740 9804,2739 9801,2739 9797,2738 9794,2738 9791,2738 9788,2739 9784,2739 9781,2740 9778,2740 9775,2741 9772,2742 9768,2743 9765,2744 9762,2745 9759,2747 9757,2748 9754,2750 9751,2752 9748,2754 9746,2756 9743,2758 9741,2760 9739,2763 9737,2765 9735,2768 9733,2770 9731,2773 9729,2776 9728,2779 9726,2782 9725,2785 9724,2788 9723,2791 9722,2794 9721,2797 9720,2800 9720,2804 9719,2807 9719,2810 9719,2813 9719,2817 9719,2820 9720,2823 9720,2826 9721,2830 9722,2833 9723,2836 9724,2839 9725,2842 9726,2845 9728,2848 9729,2851 9731,2854 9733,2856 9735,2859 9737,2862 9739,2864 9741,2866 9743,2869 9746,2871 9748,2873 9751,2875 9754,2877 9757,2878 9759,2880 9762,2881 9765,2883 9768,2884 9772,2885 9775,2886 9778,2887 9781,2887 9784,2888 9788,2888 9791,2888 9794,2888 9797,2888 9801,2888 9804,2888 9807,2887 9810,2887 9813,2886 9817,2885 9820,2884 9823,2883 9826,2881 9829,2880 9832,2878 9834,2877 9837,2875 9840,2873 9842,2871 9845,2869 9847,2866 9849,2864 9852,2862 9854,2859 9855,2856 9857,2854 9859,2851 9861,2848 9862,2845 9863,2842 9865,2839 9866,2836 9866,2833 9867,2830 9868,2826 9868,2823 9869,2820 9869,2817 9869,2813 Z "/>
 <path fill="rgb(255,66,14)" stroke="none" d="M 10907,2242 L 10907,2238 10907,2235 10906,2232 10906,2229 10905,2226 10904,2222 10903,2219 10902,2216 10901,2213 10900,2210 10898,2207 10897,2204 10895,2201 10893,2199 10891,2196 10889,2194 10887,2191 10885,2189 10883,2186 10880,2184 10877,2182 10875,2180 10872,2178 10869,2177 10866,2175 10864,2174 10861,2172 10857,2171 10854,2170 10851,2169 10848,2169 10845,2168 10842,2167 10838,2167 10835,2167 10832,2167 10829,2167 10825,2167 10822,2167 10819,2168 10816,2169 10812,2169 10809,2170 10806,2171 10803,2172 10800,2174 10797,2175 10794,2177 10792,2178 10789,2180 10786,2182 10784,2184 10781,2186 10779,2189 10777,2191 10774,2194 10772,2196 10770,2199 10769,2201 10767,2204 10765,2207 10764,2210 10763,2213 10761,2216 10760,2219 10759,2222 10759,2226 10758,2229 10757,2232 10757,2235 10757,2238 10757,2242 10757,2245 10757,2248 10757,2252 10758,2255 10759,2258 10759,2261 10760,2264 10761,2267 10763,2270 10764,2273 10765,2276 10767,2279 10769,2282 10770,2285 10772,2287 10774,2290 10777,2292 10779,2295 10781,2297 10784,2299 10786,2301 10789,2303 10792,2305 10794,2307 10797,2308 10800,2310 10803,2311 10806,2312 10809,2313 10812,2314 10816,2315 10819,2316 10822,2316 10825,2316 10829,2317 10832,2317 10835,2317 10838,2316 10842,2316 10845,2316 10848,2315 10851,2314 10854,2313 10857,2312 10861,2311 10864,2310 10866,2308 10869,2307 10872,2305 10875,2303 10877,2301 10880,2299 10883,2297 10885,2295 10887,2292 10889,2290 10891,2287 10893,2285 10895,2282 10897,2279 10898,2276 10900,2273 10901,2270 10902,2267 10903,2264 10904,2261 10905,2258 10906,2255 10906,2252 10907,2248 10907,2245 10907,2242 Z "/>
 <path fill="none" stroke="rgb(255,66,14)" stroke-linejoin="round" d="M 10907,2242 L 10907,2238 10907,2235 10906,2232 10906,2229 10905,2226 10904,2222 10903,2219 10902,2216 10901,2213 10900,2210 10898,2207 10897,2204 10895,2201 10893,2199 10891,2196 10889,2194 10887,2191 10885,2189 10883,2186 10880,2184 10877,2182 10875,2180 10872,2178 10869,2177 10866,2175 10864,2174 10861,2172 10857,2171 10854,2170 10851,2169 10848,2169 10845,2168 10842,2167 10838,2167 10835,2167 10832,2167 10829,2167 10825,2167 10822,2167 10819,2168 10816,2169 10812,2169 10809,2170 10806,2171 10803,2172 10800,2174 10797,2175 10794,2177 10792,2178 10789,2180 10786,2182 10784,2184 10781,2186 10779,2189 10777,2191 10774,2194 10772,2196 10770,2199 10769,2201 10767,2204 10765,2207 10764,2210 10763,2213 10761,2216 10760,2219 10759,2222 10759,2226 10758,2229 10757,2232 10757,2235 10757,2238 10757,2242 10757,2245 10757,2248 10757,2252 10758,2255 10759,2258 10759,2261 10760,2264 10761,2267 10763,2270 10764,2273 10765,2276 10767,2279 10769,2282 10770,2285 10772,2287 10774,2290 10777,2292 10779,2295 10781,2297 10784,2299 10786,2301 10789,2303 10792,2305 10794,2307 10797,2308 10800,2310 10803,2311 10806,2312 10809,2313 10812,2314 10816,2315 10819,2316 10822,2316 10825,2316 10829,2317 10832,2317 10835,2317 10838,2316 10842,2316 10845,2316 10848,2315 10851,2314 10854,2313 10857,2312 10861,2311 10864,2310 10866,2308 10869,2307 10872,2305 10875,2303 10877,2301 10880,2299 10883,2297 10885,2295 10887,2292 10889,2290 10891,2287 10893,2285 10895,2282 10897,2279 10898,2276 10900,2273 10901,2270 10902,2267 10903,2264 10904,2261 10905,2258 10906,2255 10906,2252 10907,2248 10907,2245 10907,2242 Z "/>
 <path fill="rgb(255,66,14)" stroke="none" d="M 11945,1567 L 11945,1564 11944,1561 11944,1558 11943,1554 11943,1551 11942,1548 11941,1545 11940,1542 11939,1539 11938,1536 11936,1533 11935,1530 11933,1527 11931,1524 11929,1522 11927,1519 11925,1517 11923,1514 11920,1512 11918,1510 11915,1508 11913,1506 11910,1504 11907,1502 11904,1501 11901,1499 11898,1498 11895,1497 11892,1496 11889,1495 11886,1494 11883,1493 11879,1493 11876,1493 11873,1492 11870,1492 11866,1492 11863,1493 11860,1493 11857,1493 11853,1494 11850,1495 11847,1496 11844,1497 11841,1498 11838,1499 11835,1501 11832,1502 11829,1504 11827,1506 11824,1508 11821,1510 11819,1512 11817,1514 11814,1517 11812,1519 11810,1522 11808,1524 11806,1527 11805,1530 11803,1533 11802,1536 11800,1539 11799,1542 11798,1545 11797,1548 11796,1551 11796,1554 11795,1558 11795,1561 11795,1564 11795,1567 11795,1571 11795,1574 11795,1577 11796,1580 11796,1584 11797,1587 11798,1590 11799,1593 11800,1596 11802,1599 11803,1602 11805,1605 11806,1608 11808,1610 11810,1613 11812,1616 11814,1618 11817,1620 11819,1623 11821,1625 11824,1627 11827,1629 11829,1631 11832,1632 11835,1634 11838,1635 11841,1637 11844,1638 11847,1639 11850,1640 11853,1641 11857,1641 11860,1642 11863,1642 11866,1642 11870,1642 11873,1642 11876,1642 11879,1642 11883,1641 11886,1641 11889,1640 11892,1639 11895,1638 11898,1637 11901,1635 11904,1634 11907,1632 11910,1631 11913,1629 11915,1627 11918,1625 11920,1623 11923,1620 11925,1618 11927,1616 11929,1613 11931,1610 11933,1608 11935,1605 11936,1602 11938,1599 11939,1596 11940,1593 11941,1590 11942,1587 11943,1584 11943,1580 11944,1577 11944,1574 11945,1571 11945,1567 Z "/>
 <path fill="none" stroke="rgb(255,66,14)" stroke-linejoin="round" d="M 11945,1567 L 11945,1564 11944,1561 11944,1558 11943,1554 11943,1551 11942,1548 11941,1545 11940,1542 11939,1539 11938,1536 11936,1533 11935,1530 11933,1527 11931,1524 11929,1522 11927,1519 11925,1517 11923,1514 11920,1512 11918,1510 11915,1508 11913,1506 11910,1504 11907,1502 11904,1501 11901,1499 11898,1498 11895,1497 11892,1496 11889,1495 11886,1494 11883,1493 11879,1493 11876,1493 11873,1492 11870,1492 11866,1492 11863,1493 11860,1493 11857,1493 11853,1494 11850,1495 11847,1496 11844,1497 11841,1498 11838,1499 11835,1501 11832,1502 11829,1504 11827,1506 11824,1508 11821,1510 11819,1512 11817,1514 11814,1517 11812,1519 11810,1522 11808,1524 11806,1527 11805,1530 11803,1533 11802,1536 11800,1539 11799,1542 11798,1545 11797,1548 11796,1551 11796,1554 11795,1558 11795,1561 11795,1564 11795,1567 11795,1571 11795,1574 11795,1577 11796,1580 11796,1584 11797,1587 11798,1590 11799,1593 11800,1596 11802,1599 11803,1602 11805,1605 11806,1608 11808,1610 11810,1613 11812,1616 11814,1618 11817,1620 11819,1623 11821,1625 11824,1627 11827,1629 11829,1631 11832,1632 11835,1634 11838,1635 11841,1637 11844,1638 11847,1639 11850,1640 11853,1641 11857,1641 11860,1642 11863,1642 11866,1642 11870,1642 11873,1642 11876,1642 11879,1642 11883,1641 11886,1641 11889,1640 11892,1639 11895,1638 11898,1637 11901,1635 11904,1634 11907,1632 11910,1631 11913,1629 11915,1627 11918,1625 11920,1623 11923,1620 11925,1618 11927,1616 11929,1613 11931,1610 11933,1608 11935,1605 11936,1602 11938,1599 11939,1596 11940,1593 11941,1590 11942,1587 11943,1584 11943,1580 11944,1577 11944,1574 11945,1571 11945,1567 Z "/>
 <path fill="none" stroke="rgb(0,69,134)" stroke-width="60" stroke-linejoin="round" d="M 3568,6807 L 4606,6268 5644,5950 6682,5677 7720,5474 8756,5327 9794,5172 10832,5058 11870,4972 "/>
 <path fill="rgb(0,69,134)" stroke="none" d="M 3643,6807 L 3643,6804 3643,6801 3643,6797 3642,6794 3642,6791 3641,6788 3640,6785 3639,6781 3638,6778 3636,6775 3635,6772 3633,6770 3632,6767 3630,6764 3628,6761 3626,6759 3624,6756 3621,6754 3619,6752 3617,6750 3614,6748 3611,6746 3609,6744 3606,6742 3603,6741 3600,6739 3597,6738 3594,6737 3591,6736 3588,6735 3585,6734 3581,6733 3578,6733 3575,6732 3572,6732 3568,6732 3565,6732 3562,6732 3559,6733 3555,6733 3552,6734 3549,6735 3546,6736 3543,6737 3540,6738 3537,6739 3534,6741 3531,6742 3528,6744 3525,6746 3523,6748 3520,6750 3518,6752 3515,6754 3513,6756 3511,6759 3509,6761 3507,6764 3505,6767 3503,6770 3502,6772 3500,6775 3499,6778 3498,6781 3497,6785 3496,6788 3495,6791 3495,6794 3494,6797 3494,6801 3493,6804 3493,6807 3493,6810 3494,6814 3494,6817 3495,6820 3495,6823 3496,6827 3497,6830 3498,6833 3499,6836 3500,6839 3502,6842 3503,6845 3505,6847 3507,6850 3509,6853 3511,6855 3513,6858 3515,6860 3518,6862 3520,6865 3523,6867 3525,6869 3528,6870 3531,6872 3534,6874 3537,6875 3540,6876 3543,6878 3546,6879 3549,6880 3552,6880 3555,6881 3559,6881 3562,6882 3565,6882 3568,6882 3572,6882 3575,6882 3578,6881 3581,6881 3585,6880 3588,6880 3591,6879 3594,6878 3597,6876 3600,6875 3603,6874 3606,6872 3609,6870 3611,6869 3614,6867 3617,6865 3619,6862 3621,6860 3624,6858 3626,6855 3628,6853 3630,6850 3632,6847 3633,6845 3635,6842 3636,6839 3638,6836 3639,6833 3640,6830 3641,6827 3642,6823 3642,6820 3643,6817 3643,6814 3643,6810 3643,6807 Z "/>
 <path fill="none" stroke="rgb(0,69,134)" stroke-linejoin="round" d="M 3643,6807 L 3643,6804 3643,6801 3643,6797 3642,6794 3642,6791 3641,6788 3640,6785 3639,6781 3638,6778 3636,6775 3635,6772 3633,6770 3632,6767 3630,6764 3628,6761 3626,6759 3624,6756 3621,6754 3619,6752 3617,6750 3614,6748 3611,6746 3609,6744 3606,6742 3603,6741 3600,6739 3597,6738 3594,6737 3591,6736 3588,6735 3585,6734 3581,6733 3578,6733 3575,6732 3572,6732 3568,6732 3565,6732 3562,6732 3559,6733 3555,6733 3552,6734 3549,6735 3546,6736 3543,6737 3540,6738 3537,6739 3534,6741 3531,6742 3528,6744 3525,6746 3523,6748 3520,6750 3518,6752 3515,6754 3513,6756 3511,6759 3509,6761 3507,6764 3505,6767 3503,6770 3502,6772 3500,6775 3499,6778 3498,6781 3497,6785 3496,6788 3495,6791 3495,6794 3494,6797 3494,6801 3493,6804 3493,6807 3493,6810 3494,6814 3494,6817 3495,6820 3495,6823 3496,6827 3497,6830 3498,6833 3499,6836 3500,6839 3502,6842 3503,6845 3505,6847 3507,6850 3509,6853 3511,6855 3513,6858 3515,6860 3518,6862 3520,6865 3523,6867 3525,6869 3528,6870 3531,6872 3534,6874 3537,6875 3540,6876 3543,6878 3546,6879 3549,6880 3552,6880 3555,6881 3559,6881 3562,6882 3565,6882 3568,6882 3572,6882 3575,6882 3578,6881 3581,6881 3585,6880 3588,6880 3591,6879 3594,6878 3597,6876 3600,6875 3603,6874 3606,6872 3609,6870 3611,6869 3614,6867 3617,6865 3619,6862 3621,6860 3624,6858 3626,6855 3628,6853 3630,6850 3632,6847 3633,6845 3635,6842 3636,6839 3638,6836 3639,6833 3640,6830 3641,6827 3642,6823 3642,6820 3643,6817 3643,6814 3643,6810 3643,6807 Z "/>
 <path fill="rgb(0,69,134)" stroke="none" d="M 4681,6268 L 4681,6264 4681,6261 4681,6258 4680,6255 4679,6251 4679,6248 4678,6245 4677,6242 4675,6239 4674,6236 4673,6233 4671,6230 4669,6227 4668,6225 4666,6222 4664,6219 4661,6217 4659,6215 4657,6212 4654,6210 4652,6208 4649,6206 4646,6204 4644,6203 4641,6201 4638,6200 4635,6198 4632,6197 4629,6196 4626,6195 4622,6194 4619,6194 4616,6193 4613,6193 4609,6193 4606,6193 4603,6193 4600,6193 4596,6193 4593,6194 4590,6194 4587,6195 4584,6196 4581,6197 4577,6198 4574,6200 4572,6201 4569,6203 4566,6204 4563,6206 4561,6208 4558,6210 4555,6212 4553,6215 4551,6217 4549,6219 4547,6222 4545,6225 4543,6227 4541,6230 4540,6233 4538,6236 4537,6239 4536,6242 4535,6245 4534,6248 4533,6251 4532,6255 4532,6258 4531,6261 4531,6264 4531,6268 4531,6271 4531,6274 4532,6277 4532,6281 4533,6284 4534,6287 4535,6290 4536,6293 4537,6296 4538,6299 4540,6302 4541,6305 4543,6308 4545,6311 4547,6313 4549,6316 4551,6318 4553,6321 4555,6323 4558,6325 4561,6327 4563,6329 4566,6331 4569,6333 4572,6334 4574,6336 4577,6337 4581,6338 4584,6339 4587,6340 4590,6341 4593,6342 4596,6342 4600,6342 4603,6343 4606,6343 4609,6343 4613,6342 4616,6342 4619,6342 4622,6341 4626,6340 4629,6339 4632,6338 4635,6337 4638,6336 4641,6334 4644,6333 4646,6331 4649,6329 4652,6327 4654,6325 4657,6323 4659,6321 4661,6318 4664,6316 4666,6313 4668,6311 4669,6308 4671,6305 4673,6302 4674,6299 4675,6296 4677,6293 4678,6290 4679,6287 4679,6284 4680,6281 4681,6277 4681,6274 4681,6271 4681,6268 Z "/>
 <path fill="none" stroke="rgb(0,69,134)" stroke-linejoin="round" d="M 4681,6268 L 4681,6264 4681,6261 4681,6258 4680,6255 4679,6251 4679,6248 4678,6245 4677,6242 4675,6239 4674,6236 4673,6233 4671,6230 4669,6227 4668,6225 4666,6222 4664,6219 4661,6217 4659,6215 4657,6212 4654,6210 4652,6208 4649,6206 4646,6204 4644,6203 4641,6201 4638,6200 4635,6198 4632,6197 4629,6196 4626,6195 4622,6194 4619,6194 4616,6193 4613,6193 4609,6193 4606,6193 4603,6193 4600,6193 4596,6193 4593,6194 4590,6194 4587,6195 4584,6196 4581,6197 4577,6198 4574,6200 4572,6201 4569,6203 4566,6204 4563,6206 4561,6208 4558,6210 4555,6212 4553,6215 4551,6217 4549,6219 4547,6222 4545,6225 4543,6227 4541,6230 4540,6233 4538,6236 4537,6239 4536,6242 4535,6245 4534,6248 4533,6251 4532,6255 4532,6258 4531,6261 4531,6264 4531,6268 4531,6271 4531,6274 4532,6277 4532,6281 4533,6284 4534,6287 4535,6290 4536,6293 4537,6296 4538,6299 4540,6302 4541,6305 4543,6308 4545,6311 4547,6313 4549,6316 4551,6318 4553,6321 4555,6323 4558,6325 4561,6327 4563,6329 4566,6331 4569,6333 4572,6334 4574,6336 4577,6337 4581,6338 4584,6339 4587,6340 4590,6341 4593,6342 4596,6342 4600,6342 4603,6343 4606,6343 4609,6343 4613,6342 4616,6342 4619,6342 4622,6341 4626,6340 4629,6339 4632,6338 4635,6337 4638,6336 4641,6334 4644,6333 4646,6331 4649,6329 4652,6327 4654,6325 4657,6323 4659,6321 4661,6318 4664,6316 4666,6313 4668,6311 4669,6308 4671,6305 4673,6302 4674,6299 4675,6296 4677,6293 4678,6290 4679,6287 4679,6284 4680,6281 4681,6277 4681,6274 4681,6271 4681,6268 Z "/>
 <path fill="rgb(0,69,134)" stroke="none" d="M 5719,5950 L 5719,5946 5719,5943 5718,5940 5718,5937 5717,5933 5716,5930 5715,5927 5714,5924 5713,5921 5712,5918 5710,5915 5709,5912 5707,5909 5705,5907 5703,5904 5701,5901 5699,5899 5697,5897 5695,5894 5692,5892 5690,5890 5687,5888 5684,5886 5681,5885 5679,5883 5676,5882 5673,5880 5670,5879 5666,5878 5663,5877 5660,5876 5657,5876 5654,5875 5650,5875 5647,5875 5644,5875 5641,5875 5637,5875 5634,5875 5631,5876 5628,5876 5625,5877 5621,5878 5618,5879 5615,5880 5612,5882 5609,5883 5606,5885 5604,5886 5601,5888 5598,5890 5596,5892 5593,5894 5591,5897 5589,5899 5586,5901 5584,5904 5583,5907 5581,5909 5579,5912 5577,5915 5576,5918 5575,5921 5573,5924 5572,5927 5572,5930 5571,5933 5570,5937 5570,5940 5569,5943 5569,5946 5569,5950 5569,5953 5569,5956 5570,5959 5570,5963 5571,5966 5572,5969 5572,5972 5573,5975 5575,5978 5576,5981 5577,5984 5579,5987 5581,5990 5583,5993 5584,5995 5586,5998 5589,6000 5591,6003 5593,6005 5596,6007 5598,6009 5601,6011 5604,6013 5606,6015 5609,6016 5612,6018 5615,6019 5618,6020 5621,6021 5625,6022 5628,6023 5631,6024 5634,6024 5637,6024 5641,6025 5644,6025 5647,6025 5650,6024 5654,6024 5657,6024 5660,6023 5663,6022 5666,6021 5670,6020 5673,6019 5676,6018 5679,6016 5681,6015 5684,6013 5687,6011 5690,6009 5692,6007 5695,6005 5697,6003 5699,6000 5701,5998 5703,5995 5705,5993 5707,5990 5709,5987 5710,5984 5712,5981 5713,5978 5714,5975 5715,5972 5716,5969 5717,5966 5718,5963 5718,5959 5719,5956 5719,5953 5719,5950 Z "/>
 <path fill="none" stroke="rgb(0,69,134)" stroke-linejoin="round" d="M 5719,5950 L 5719,5946 5719,5943 5718,5940 5718,5937 5717,5933 5716,5930 5715,5927 5714,5924 5713,5921 5712,5918 5710,5915 5709,5912 5707,5909 5705,5907 5703,5904 5701,5901 5699,5899 5697,5897 5695,5894 5692,5892 5690,5890 5687,5888 5684,5886 5681,5885 5679,5883 5676,5882 5673,5880 5670,5879 5666,5878 5663,5877 5660,5876 5657,5876 5654,5875 5650,5875 5647,5875 5644,5875 5641,5875 5637,5875 5634,5875 5631,5876 5628,5876 5625,5877 5621,5878 5618,5879 5615,5880 5612,5882 5609,5883 5606,5885 5604,5886 5601,5888 5598,5890 5596,5892 5593,5894 5591,5897 5589,5899 5586,5901 5584,5904 5583,5907 5581,5909 5579,5912 5577,5915 5576,5918 5575,5921 5573,5924 5572,5927 5572,5930 5571,5933 5570,5937 5570,5940 5569,5943 5569,5946 5569,5950 5569,5953 5569,5956 5570,5959 5570,5963 5571,5966 5572,5969 5572,5972 5573,5975 5575,5978 5576,5981 5577,5984 5579,5987 5581,5990 5583,5993 5584,5995 5586,5998 5589,6000 5591,6003 5593,6005 5596,6007 5598,6009 5601,6011 5604,6013 5606,6015 5609,6016 5612,6018 5615,6019 5618,6020 5621,6021 5625,6022 5628,6023 5631,6024 5634,6024 5637,6024 5641,6025 5644,6025 5647,6025 5650,6024 5654,6024 5657,6024 5660,6023 5663,6022 5666,6021 5670,6020 5673,6019 5676,6018 5679,6016 5681,6015 5684,6013 5687,6011 5690,6009 5692,6007 5695,6005 5697,6003 5699,6000 5701,5998 5703,5995 5705,5993 5707,5990 5709,5987 5710,5984 5712,5981 5713,5978 5714,5975 5715,5972 5716,5969 5717,5966 5718,5963 5718,5959 5719,5956 5719,5953 5719,5950 Z "/>
 <path fill="rgb(0,69,134)" stroke="none" d="M 6757,5677 L 6757,5673 6756,5670 6756,5667 6756,5664 6755,5660 6754,5657 6753,5654 6752,5651 6751,5648 6750,5645 6748,5642 6747,5639 6745,5636 6743,5634 6741,5631 6739,5628 6737,5626 6735,5624 6732,5621 6730,5619 6727,5617 6725,5615 6722,5613 6719,5612 6716,5610 6713,5609 6710,5607 6707,5606 6704,5605 6701,5604 6698,5603 6695,5603 6692,5602 6688,5602 6685,5602 6682,5602 6678,5602 6675,5602 6672,5602 6669,5603 6665,5603 6662,5604 6659,5605 6656,5606 6653,5607 6650,5609 6647,5610 6644,5612 6641,5613 6639,5615 6636,5617 6634,5619 6631,5621 6629,5624 6626,5626 6624,5628 6622,5631 6620,5634 6618,5636 6617,5639 6615,5642 6614,5645 6612,5648 6611,5651 6610,5654 6609,5657 6609,5660 6608,5664 6607,5667 6607,5670 6607,5673 6607,5677 6607,5680 6607,5683 6607,5686 6608,5690 6609,5693 6609,5696 6610,5699 6611,5702 6612,5705 6614,5708 6615,5711 6617,5714 6618,5717 6620,5720 6622,5722 6624,5725 6626,5727 6629,5730 6631,5732 6634,5734 6636,5736 6639,5738 6641,5740 6644,5742 6647,5743 6650,5745 6653,5746 6656,5747 6659,5748 6662,5749 6665,5750 6669,5751 6672,5751 6675,5751 6678,5752 6682,5752 6685,5752 6688,5751 6692,5751 6695,5751 6698,5750 6701,5749 6704,5748 6707,5747 6710,5746 6713,5745 6716,5743 6719,5742 6722,5740 6725,5738 6727,5736 6730,5734 6732,5732 6735,5730 6737,5727 6739,5725 6741,5722 6743,5720 6745,5717 6747,5714 6748,5711 6750,5708 6751,5705 6752,5702 6753,5699 6754,5696 6755,5693 6756,5690 6756,5686 6756,5683 6757,5680 6757,5677 Z "/>
 <path fill="none" stroke="rgb(0,69,134)" stroke-linejoin="round" d="M 6757,5677 L 6757,5673 6756,5670 6756,5667 6756,5664 6755,5660 6754,5657 6753,5654 6752,5651 6751,5648 6750,5645 6748,5642 6747,5639 6745,5636 6743,5634 6741,5631 6739,5628 6737,5626 6735,5624 6732,5621 6730,5619 6727,5617 6725,5615 6722,5613 6719,5612 6716,5610 6713,5609 6710,5607 6707,5606 6704,5605 6701,5604 6698,5603 6695,5603 6692,5602 6688,5602 6685,5602 6682,5602 6678,5602 6675,5602 6672,5602 6669,5603 6665,5603 6662,5604 6659,5605 6656,5606 6653,5607 6650,5609 6647,5610 6644,5612 6641,5613 6639,5615 6636,5617 6634,5619 6631,5621 6629,5624 6626,5626 6624,5628 6622,5631 6620,5634 6618,5636 6617,5639 6615,5642 6614,5645 6612,5648 6611,5651 6610,5654 6609,5657 6609,5660 6608,5664 6607,5667 6607,5670 6607,5673 6607,5677 6607,5680 6607,5683 6607,5686 6608,5690 6609,5693 6609,5696 6610,5699 6611,5702 6612,5705 6614,5708 6615,5711 6617,5714 6618,5717 6620,5720 6622,5722 6624,5725 6626,5727 6629,5730 6631,5732 6634,5734 6636,5736 6639,5738 6641,5740 6644,5742 6647,5743 6650,5745 6653,5746 6656,5747 6659,5748 6662,5749 6665,5750 6669,5751 6672,5751 6675,5751 6678,5752 6682,5752 6685,5752 6688,5751 6692,5751 6695,5751 6698,5750 6701,5749 6704,5748 6707,5747 6710,5746 6713,5745 6716,5743 6719,5742 6722,5740 6725,5738 6727,5736 6730,5734 6732,5732 6735,5730 6737,5727 6739,5725 6741,5722 6743,5720 6745,5717 6747,5714 6748,5711 6750,5708 6751,5705 6752,5702 6753,5699 6754,5696 6755,5693 6756,5690 6756,5686 6756,5683 6757,5680 6757,5677 Z "/>
 <path fill="rgb(0,69,134)" stroke="none" d="M 7795,5474 L 7794,5471 7794,5468 7794,5464 7793,5461 7793,5458 7792,5455 7791,5452 7790,5449 7789,5445 7787,5442 7786,5440 7784,5437 7783,5434 7781,5431 7779,5429 7777,5426 7775,5424 7773,5421 7770,5419 7768,5417 7765,5415 7763,5413 7760,5411 7757,5409 7754,5408 7751,5406 7748,5405 7745,5404 7742,5403 7739,5402 7736,5401 7733,5400 7729,5400 7726,5399 7723,5399 7720,5399 7716,5399 7713,5399 7710,5400 7706,5400 7703,5401 7700,5402 7697,5403 7694,5404 7691,5405 7688,5406 7685,5408 7682,5409 7679,5411 7676,5413 7674,5415 7671,5417 7669,5419 7666,5421 7664,5424 7662,5426 7660,5429 7658,5431 7656,5434 7655,5437 7653,5440 7652,5442 7650,5445 7649,5449 7648,5452 7647,5455 7646,5458 7646,5461 7645,5464 7645,5468 7645,5471 7645,5474 7645,5477 7645,5481 7645,5484 7646,5487 7646,5490 7647,5494 7648,5497 7649,5500 7650,5503 7652,5506 7653,5509 7655,5512 7656,5514 7658,5517 7660,5520 7662,5522 7664,5525 7666,5527 7669,5529 7671,5532 7674,5534 7676,5536 7679,5537 7682,5539 7685,5541 7688,5542 7691,5543 7694,5545 7697,5546 7700,5547 7703,5547 7706,5548 7710,5549 7713,5549 7716,5549 7720,5549 7723,5549 7726,5549 7729,5549 7733,5548 7736,5547 7739,5547 7742,5546 7745,5545 7748,5543 7751,5542 7754,5541 7757,5539 7760,5537 7763,5536 7765,5534 7768,5532 7770,5529 7773,5527 7775,5525 7777,5522 7779,5520 7781,5517 7783,5514 7784,5512 7786,5509 7787,5506 7789,5503 7790,5500 7791,5497 7792,5494 7793,5490 7793,5487 7794,5484 7794,5481 7794,5477 7795,5474 Z "/>
 <path fill="none" stroke="rgb(0,69,134)" stroke-linejoin="round" d="M 7795,5474 L 7794,5471 7794,5468 7794,5464 7793,5461 7793,5458 7792,5455 7791,5452 7790,5449 7789,5445 7787,5442 7786,5440 7784,5437 7783,5434 7781,5431 7779,5429 7777,5426 7775,5424 7773,5421 7770,5419 7768,5417 7765,5415 7763,5413 7760,5411 7757,5409 7754,5408 7751,5406 7748,5405 7745,5404 7742,5403 7739,5402 7736,5401 7733,5400 7729,5400 7726,5399 7723,5399 7720,5399 7716,5399 7713,5399 7710,5400 7706,5400 7703,5401 7700,5402 7697,5403 7694,5404 7691,5405 7688,5406 7685,5408 7682,5409 7679,5411 7676,5413 7674,5415 7671,5417 7669,5419 7666,5421 7664,5424 7662,5426 7660,5429 7658,5431 7656,5434 7655,5437 7653,5440 7652,5442 7650,5445 7649,5449 7648,5452 7647,5455 7646,5458 7646,5461 7645,5464 7645,5468 7645,5471 7645,5474 7645,5477 7645,5481 7645,5484 7646,5487 7646,5490 7647,5494 7648,5497 7649,5500 7650,5503 7652,5506 7653,5509 7655,5512 7656,5514 7658,5517 7660,5520 7662,5522 7664,5525 7666,5527 7669,5529 7671,5532 7674,5534 7676,5536 7679,5537 7682,5539 7685,5541 7688,5542 7691,5543 7694,5545 7697,5546 7700,5547 7703,5547 7706,5548 7710,5549 7713,5549 7716,5549 7720,5549 7723,5549 7726,5549 7729,5549 7733,5548 7736,5547 7739,5547 7742,5546 7745,5545 7748,5543 7751,5542 7754,5541 7757,5539 7760,5537 7763,5536 7765,5534 7768,5532 7770,5529 7773,5527 7775,5525 7777,5522 7779,5520 7781,5517 7783,5514 7784,5512 7786,5509 7787,5506 7789,5503 7790,5500 7791,5497 7792,5494 7793,5490 7793,5487 7794,5484 7794,5481 7794,5477 7795,5474 Z "/>
 <path fill="rgb(0,69,134)" stroke="none" d="M 8831,5327 L 8831,5324 8831,5321 8831,5317 8830,5314 8829,5311 8829,5308 8828,5305 8827,5301 8826,5298 8824,5295 8823,5292 8821,5290 8820,5287 8818,5284 8816,5281 8814,5279 8812,5276 8809,5274 8807,5272 8804,5270 8802,5268 8799,5266 8797,5264 8794,5262 8791,5261 8788,5259 8785,5258 8782,5257 8779,5256 8776,5255 8773,5254 8769,5253 8766,5253 8763,5252 8760,5252 8756,5252 8753,5252 8750,5252 8746,5253 8743,5253 8740,5254 8737,5255 8734,5256 8731,5257 8728,5258 8725,5259 8722,5261 8719,5262 8716,5264 8713,5266 8711,5268 8708,5270 8706,5272 8703,5274 8701,5276 8699,5279 8697,5281 8695,5284 8693,5287 8691,5290 8690,5292 8688,5295 8687,5298 8686,5301 8685,5305 8684,5308 8683,5311 8682,5314 8682,5317 8682,5321 8681,5324 8681,5327 8681,5330 8682,5334 8682,5337 8682,5340 8683,5343 8684,5347 8685,5350 8686,5353 8687,5356 8688,5359 8690,5362 8691,5365 8693,5367 8695,5370 8697,5373 8699,5375 8701,5378 8703,5380 8706,5382 8708,5385 8711,5387 8713,5389 8716,5390 8719,5392 8722,5394 8725,5395 8728,5396 8731,5398 8734,5399 8737,5400 8740,5400 8743,5401 8746,5401 8750,5402 8753,5402 8756,5402 8760,5402 8763,5402 8766,5401 8769,5401 8773,5400 8776,5400 8779,5399 8782,5398 8785,5396 8788,5395 8791,5394 8794,5392 8797,5390 8799,5389 8802,5387 8804,5385 8807,5382 8809,5380 8812,5378 8814,5375 8816,5373 8818,5370 8820,5367 8821,5365 8823,5362 8824,5359 8826,5356 8827,5353 8828,5350 8829,5347 8829,5343 8830,5340 8831,5337 8831,5334 8831,5330 8831,5327 Z "/>
 <path fill="none" stroke="rgb(0,69,134)" stroke-linejoin="round" d="M 8831,5327 L 8831,5324 8831,5321 8831,5317 8830,5314 8829,5311 8829,5308 8828,5305 8827,5301 8826,5298 8824,5295 8823,5292 8821,5290 8820,5287 8818,5284 8816,5281 8814,5279 8812,5276 8809,5274 8807,5272 8804,5270 8802,5268 8799,5266 8797,5264 8794,5262 8791,5261 8788,5259 8785,5258 8782,5257 8779,5256 8776,5255 8773,5254 8769,5253 8766,5253 8763,5252 8760,5252 8756,5252 8753,5252 8750,5252 8746,5253 8743,5253 8740,5254 8737,5255 8734,5256 8731,5257 8728,5258 8725,5259 8722,5261 8719,5262 8716,5264 8713,5266 8711,5268 8708,5270 8706,5272 8703,5274 8701,5276 8699,5279 8697,5281 8695,5284 8693,5287 8691,5290 8690,5292 8688,5295 8687,5298 8686,5301 8685,5305 8684,5308 8683,5311 8682,5314 8682,5317 8682,5321 8681,5324 8681,5327 8681,5330 8682,5334 8682,5337 8682,5340 8683,5343 8684,5347 8685,5350 8686,5353 8687,5356 8688,5359 8690,5362 8691,5365 8693,5367 8695,5370 8697,5373 8699,5375 8701,5378 8703,5380 8706,5382 8708,5385 8711,5387 8713,5389 8716,5390 8719,5392 8722,5394 8725,5395 8728,5396 8731,5398 8734,5399 8737,5400 8740,5400 8743,5401 8746,5401 8750,5402 8753,5402 8756,5402 8760,5402 8763,5402 8766,5401 8769,5401 8773,5400 8776,5400 8779,5399 8782,5398 8785,5396 8788,5395 8791,5394 8794,5392 8797,5390 8799,5389 8802,5387 8804,5385 8807,5382 8809,5380 8812,5378 8814,5375 8816,5373 8818,5370 8820,5367 8821,5365 8823,5362 8824,5359 8826,5356 8827,5353 8828,5350 8829,5347 8829,5343 8830,5340 8831,5337 8831,5334 8831,5330 8831,5327 Z "/>
 <path fill="rgb(0,69,134)" stroke="none" d="M 9869,5172 L 9869,5169 9869,5166 9868,5163 9868,5159 9867,5156 9866,5153 9866,5150 9865,5147 9863,5144 9862,5141 9861,5138 9859,5135 9857,5132 9855,5129 9854,5127 9852,5124 9849,5122 9847,5119 9845,5117 9842,5115 9840,5113 9837,5111 9834,5109 9832,5107 9829,5106 9826,5104 9823,5103 9820,5102 9817,5101 9813,5100 9810,5099 9807,5099 9804,5098 9801,5098 9797,5097 9794,5097 9791,5097 9788,5098 9784,5098 9781,5099 9778,5099 9775,5100 9772,5101 9768,5102 9765,5103 9762,5104 9759,5106 9757,5107 9754,5109 9751,5111 9748,5113 9746,5115 9743,5117 9741,5119 9739,5122 9737,5124 9735,5127 9733,5129 9731,5132 9729,5135 9728,5138 9726,5141 9725,5144 9724,5147 9723,5150 9722,5153 9721,5156 9720,5159 9720,5163 9719,5166 9719,5169 9719,5172 9719,5176 9719,5179 9720,5182 9720,5185 9721,5189 9722,5192 9723,5195 9724,5198 9725,5201 9726,5204 9728,5207 9729,5210 9731,5213 9733,5215 9735,5218 9737,5221 9739,5223 9741,5225 9743,5228 9746,5230 9748,5232 9751,5234 9754,5236 9757,5237 9759,5239 9762,5240 9765,5242 9768,5243 9772,5244 9775,5245 9778,5246 9781,5246 9784,5247 9788,5247 9791,5247 9794,5247 9797,5247 9801,5247 9804,5247 9807,5246 9810,5246 9813,5245 9817,5244 9820,5243 9823,5242 9826,5240 9829,5239 9832,5237 9834,5236 9837,5234 9840,5232 9842,5230 9845,5228 9847,5225 9849,5223 9852,5221 9854,5218 9855,5215 9857,5213 9859,5210 9861,5207 9862,5204 9863,5201 9865,5198 9866,5195 9866,5192 9867,5189 9868,5185 9868,5182 9869,5179 9869,5176 9869,5172 Z "/>
 <path fill="none" stroke="rgb(0,69,134)" stroke-linejoin="round" d="M 9869,5172 L 9869,5169 9869,5166 9868,5163 9868,5159 9867,5156 9866,5153 9866,5150 9865,5147 9863,5144 9862,5141 9861,5138 9859,5135 9857,5132 9855,5129 9854,5127 9852,5124 9849,5122 9847,5119 9845,5117 9842,5115 9840,5113 9837,5111 9834,5109 9832,5107 9829,5106 9826,5104 9823,5103 9820,5102 9817,5101 9813,5100 9810,5099 9807,5099 9804,5098 9801,5098 9797,5097 9794,5097 9791,5097 9788,5098 9784,5098 9781,5099 9778,5099 9775,5100 9772,5101 9768,5102 9765,5103 9762,5104 9759,5106 9757,5107 9754,5109 9751,5111 9748,5113 9746,5115 9743,5117 9741,5119 9739,5122 9737,5124 9735,5127 9733,5129 9731,5132 9729,5135 9728,5138 9726,5141 9725,5144 9724,5147 9723,5150 9722,5153 9721,5156 9720,5159 9720,5163 9719,5166 9719,5169 9719,5172 9719,5176 9719,5179 9720,5182 9720,5185 9721,5189 9722,5192 9723,5195 9724,5198 9725,5201 9726,5204 9728,5207 9729,5210 9731,5213 9733,5215 9735,5218 9737,5221 9739,5223 9741,5225 9743,5228 9746,5230 9748,5232 9751,5234 9754,5236 9757,5237 9759,5239 9762,5240 9765,5242 9768,5243 9772,5244 9775,5245 9778,5246 9781,5246 9784,5247 9788,5247 9791,5247 9794,5247 9797,5247 9801,5247 9804,5247 9807,5246 9810,5246 9813,5245 9817,5244 9820,5243 9823,5242 9826,5240 9829,5239 9832,5237 9834,5236 9837,5234 9840,5232 9842,5230 9845,5228 9847,5225 9849,5223 9852,5221 9854,5218 9855,5215 9857,5213 9859,5210 9861,5207 9862,5204 9863,5201 9865,5198 9866,5195 9866,5192 9867,5189 9868,5185 9868,5182 9869,5179 9869,5176 9869,5172 Z "/>
 <path fill="rgb(0,69,134)" stroke="none" d="M 10907,5058 L 10907,5054 10907,5051 10906,5048 10906,5045 10905,5041 10904,5038 10903,5035 10902,5032 10901,5029 10900,5026 10898,5023 10897,5020 10895,5017 10893,5015 10891,5012 10889,5009 10887,5007 10885,5005 10883,5002 10880,5000 10877,4998 10875,4996 10872,4994 10869,4993 10866,4991 10864,4990 10861,4988 10857,4987 10854,4986 10851,4985 10848,4984 10845,4984 10842,4983 10838,4983 10835,4983 10832,4983 10829,4983 10825,4983 10822,4983 10819,4984 10816,4984 10812,4985 10809,4986 10806,4987 10803,4988 10800,4990 10797,4991 10794,4993 10792,4994 10789,4996 10786,4998 10784,5000 10781,5002 10779,5005 10777,5007 10774,5009 10772,5012 10770,5015 10769,5017 10767,5020 10765,5023 10764,5026 10763,5029 10761,5032 10760,5035 10759,5038 10759,5041 10758,5045 10757,5048 10757,5051 10757,5054 10757,5058 10757,5061 10757,5064 10757,5067 10758,5071 10759,5074 10759,5077 10760,5080 10761,5083 10763,5086 10764,5089 10765,5092 10767,5095 10769,5098 10770,5101 10772,5103 10774,5106 10777,5108 10779,5111 10781,5113 10784,5115 10786,5117 10789,5119 10792,5121 10794,5123 10797,5124 10800,5126 10803,5127 10806,5128 10809,5129 10812,5130 10816,5131 10819,5131 10822,5132 10825,5132 10829,5133 10832,5133 10835,5133 10838,5132 10842,5132 10845,5131 10848,5131 10851,5130 10854,5129 10857,5128 10861,5127 10864,5126 10866,5124 10869,5123 10872,5121 10875,5119 10877,5117 10880,5115 10883,5113 10885,5111 10887,5108 10889,5106 10891,5103 10893,5101 10895,5098 10897,5095 10898,5092 10900,5089 10901,5086 10902,5083 10903,5080 10904,5077 10905,5074 10906,5071 10906,5067 10907,5064 10907,5061 10907,5058 Z "/>
 <path fill="none" stroke="rgb(0,69,134)" stroke-linejoin="round" d="M 10907,5058 L 10907,5054 10907,5051 10906,5048 10906,5045 10905,5041 10904,5038 10903,5035 10902,5032 10901,5029 10900,5026 10898,5023 10897,5020 10895,5017 10893,5015 10891,5012 10889,5009 10887,5007 10885,5005 10883,5002 10880,5000 10877,4998 10875,4996 10872,4994 10869,4993 10866,4991 10864,4990 10861,4988 10857,4987 10854,4986 10851,4985 10848,4984 10845,4984 10842,4983 10838,4983 10835,4983 10832,4983 10829,4983 10825,4983 10822,4983 10819,4984 10816,4984 10812,4985 10809,4986 10806,4987 10803,4988 10800,4990 10797,4991 10794,4993 10792,4994 10789,4996 10786,4998 10784,5000 10781,5002 10779,5005 10777,5007 10774,5009 10772,5012 10770,5015 10769,5017 10767,5020 10765,5023 10764,5026 10763,5029 10761,5032 10760,5035 10759,5038 10759,5041 10758,5045 10757,5048 10757,5051 10757,5054 10757,5058 10757,5061 10757,5064 10757,5067 10758,5071 10759,5074 10759,5077 10760,5080 10761,5083 10763,5086 10764,5089 10765,5092 10767,5095 10769,5098 10770,5101 10772,5103 10774,5106 10777,5108 10779,5111 10781,5113 10784,5115 10786,5117 10789,5119 10792,5121 10794,5123 10797,5124 10800,5126 10803,5127 10806,5128 10809,5129 10812,5130 10816,5131 10819,5131 10822,5132 10825,5132 10829,5133 10832,5133 10835,5133 10838,5132 10842,5132 10845,5131 10848,5131 10851,5130 10854,5129 10857,5128 10861,5127 10864,5126 10866,5124 10869,5123 10872,5121 10875,5119 10877,5117 10880,5115 10883,5113 10885,5111 10887,5108 10889,5106 10891,5103 10893,5101 10895,5098 10897,5095 10898,5092 10900,5089 10901,5086 10902,5083 10903,5080 10904,5077 10905,5074 10906,5071 10906,5067 10907,5064 10907,5061 10907,5058 Z "/>
 <path fill="rgb(0,69,134)" stroke="none" d="M 11945,4972 L 11945,4969 11944,4966 11944,4962 11943,4959 11943,4956 11942,4953 11941,4950 11940,4946 11939,4943 11938,4940 11936,4937 11935,4935 11933,4932 11931,4929 11929,4926 11927,4924 11925,4921 11923,4919 11920,4917 11918,4915 11915,4913 11913,4911 11910,4909 11907,4907 11904,4906 11901,4904 11898,4903 11895,4902 11892,4901 11889,4900 11886,4899 11883,4898 11879,4898 11876,4897 11873,4897 11870,4897 11866,4897 11863,4897 11860,4898 11857,4898 11853,4899 11850,4900 11847,4901 11844,4902 11841,4903 11838,4904 11835,4906 11832,4907 11829,4909 11827,4911 11824,4913 11821,4915 11819,4917 11817,4919 11814,4921 11812,4924 11810,4926 11808,4929 11806,4932 11805,4935 11803,4937 11802,4940 11800,4943 11799,4946 11798,4950 11797,4953 11796,4956 11796,4959 11795,4962 11795,4966 11795,4969 11795,4972 11795,4975 11795,4979 11795,4982 11796,4985 11796,4988 11797,4991 11798,4995 11799,4998 11800,5001 11802,5004 11803,5007 11805,5010 11806,5012 11808,5015 11810,5018 11812,5020 11814,5023 11817,5025 11819,5027 11821,5030 11824,5032 11827,5033 11829,5035 11832,5037 11835,5039 11838,5040 11841,5041 11844,5043 11847,5044 11850,5045 11853,5045 11857,5046 11860,5046 11863,5047 11866,5047 11870,5047 11873,5047 11876,5047 11879,5046 11883,5046 11886,5045 11889,5045 11892,5044 11895,5043 11898,5041 11901,5040 11904,5039 11907,5037 11910,5035 11913,5033 11915,5032 11918,5030 11920,5027 11923,5025 11925,5023 11927,5020 11929,5018 11931,5015 11933,5012 11935,5010 11936,5007 11938,5004 11939,5001 11940,4998 11941,4995 11942,4991 11943,4988 11943,4985 11944,4982 11944,4979 11945,4975 11945,4972 Z "/>
 <path fill="none" stroke="rgb(0,69,134)" stroke-linejoin="round" d="M 11945,4972 L 11945,4969 11944,4966 11944,4962 11943,4959 11943,4956 11942,4953 11941,4950 11940,4946 11939,4943 11938,4940 11936,4937 11935,4935 11933,4932 11931,4929 11929,4926 11927,4924 11925,4921 11923,4919 11920,4917 11918,4915 11915,4913 11913,4911 11910,4909 11907,4907 11904,4906 11901,4904 11898,4903 11895,4902 11892,4901 11889,4900 11886,4899 11883,4898 11879,4898 11876,4897 11873,4897 11870,4897 11866,4897 11863,4897 11860,4898 11857,4898 11853,4899 11850,4900 11847,4901 11844,4902 11841,4903 11838,4904 11835,4906 11832,4907 11829,4909 11827,4911 11824,4913 11821,4915 11819,4917 11817,4919 11814,4921 11812,4924 11810,4926 11808,4929 11806,4932 11805,4935 11803,4937 11802,4940 11800,4943 11799,4946 11798,4950 11797,4953 11796,4956 11796,4959 11795,4962 11795,4966 11795,4969 11795,4972 11795,4975 11795,4979 11795,4982 11796,4985 11796,4988 11797,4991 11798,4995 11799,4998 11800,5001 11802,5004 11803,5007 11805,5010 11806,5012 11808,5015 11810,5018 11812,5020 11814,5023 11817,5025 11819,5027 11821,5030 11824,5032 11827,5033 11829,5035 11832,5037 11835,5039 11838,5040 11841,5041 11844,5043 11847,5044 11850,5045 11853,5045 11857,5046 11860,5046 11863,5047 11866,5047 11870,5047 11873,5047 11876,5047 11879,5046 11883,5046 11886,5045 11889,5045 11892,5044 11895,5043 11898,5041 11901,5040 11904,5039 11907,5037 11910,5035 11913,5033 11915,5032 11918,5030 11920,5027 11923,5025 11925,5023 11927,5020 11929,5018 11931,5015 11933,5012 11935,5010 11936,5007 11938,5004 11939,5001 11940,4998 11941,4995 11942,4991 11943,4988 11943,4985 11944,4982 11944,4979 11945,4975 11945,4972 Z "/>
 <text class="SVGTextShape"><tspan class="TextParagraph"><tspan class="TextPosition" x="2954" y="7750"><tspan font-family="Liberation Sans, sans-serif" font-size="353px" font-weight="400" lengthAdjust="spacingAndGlyphs" textLength="191" fill="rgb(0,0,0)" stroke="none" style="white-space: pre">2</tspan></tspan></tspan></text>
 <text class="SVGTextShape"><tspan class="TextParagraph"><tspan class="TextPosition" x="3991" y="7750"><tspan font-family="Liberation Sans, sans-serif" font-size="353px" font-weight="400" lengthAdjust="spacingAndGlyphs" textLength="191" fill="rgb(0,0,0)" stroke="none" style="white-space: pre">4</tspan></tspan></tspan></text>
 <text class="SVGTextShape"><tspan class="TextParagraph"><tspan class="TextPosition" x="5029" y="7750"><tspan font-family="Liberation Sans, sans-serif" font-size="353px" font-weight="400" lengthAdjust="spacingAndGlyphs" textLength="191" fill="rgb(0,0,0)" stroke="none" style="white-space: pre">6</tspan></tspan></tspan></text>
 <text class="SVGTextShape"><tspan class="TextParagraph"><tspan class="TextPosition" x="6067" y="7750"><tspan font-family="Liberation Sans, sans-serif" font-size="353px" font-weight="400" lengthAdjust="spacingAndGlyphs" textLength="191" fill="rgb(0,0,0)" stroke="none" style="white-space: pre">8</tspan></tspan></tspan></text>
 <text class="SVGTextShape"><tspan class="TextParagraph"><tspan class="TextPosition" x="7009" y="7750"><tspan font-family="Liberation Sans, sans-serif" font-size="353px" font-weight="400" lengthAdjust="spacingAndGlyphs" textLength="382" fill="rgb(0,0,0)" stroke="none" style="white-space: pre">10</tspan></tspan></tspan></text>
 <text class="SVGTextShape"><tspan class="TextParagraph"><tspan class="TextPosition" x="8045" y="7750"><tspan font-family="Liberation Sans, sans-serif" font-size="353px" font-weight="400" lengthAdjust="spacingAndGlyphs" textLength="382" fill="rgb(0,0,0)" stroke="none" style="white-space: pre">12</tspan></tspan></tspan></text>
 <text class="SVGTextShape"><tspan class="TextParagraph"><tspan class="TextPosition" x="9083" y="7750"><tspan font-family="Liberation Sans, sans-serif" font-size="353px" font-weight="400" lengthAdjust="spacingAndGlyphs" textLength="382" fill="rgb(0,0,0)" stroke="none" style="white-space: pre">14</tspan></tspan></tspan></text>
 <text class="SVGTextShape"><tspan class="TextParagraph"><tspan class="TextPosition" x="10121" y="7750"><tspan font-family="Liberation Sans, sans-serif" font-size="353px" font-weight="400" lengthAdjust="spacingAndGlyphs" textLength="382" fill="rgb(0,0,0)" stroke="none" style="white-space: pre">16</tspan></tspan></tspan></text>
 <text class="SVGTextShape"><tspan class="TextParagraph"><tspan class="TextPosition" x="11159" y="7750"><tspan font-family="Liberation Sans, sans-serif" font-size="353px" font-weight="400" lengthAdjust="spacingAndGlyphs" textLength="382" fill="rgb(0,0,0)" stroke="none" style="white-space: pre">18</tspan></tspan></tspan></text>
 <text class="SVGTextShape"><tspan class="TextParagraph"><tspan class="TextPosition" x="12197" y="7750"><tspan font-family="Liberation Sans, sans-serif" font-size="353px" font-weight="400" lengthAdjust="spacingAndGlyphs" textLength="382" fill="rgb(0,0,0)" stroke="none" style="white-space: pre">20</tspan></tspan></tspan></text>
 <text class="SVGTextShape"><tspan class="TextParagraph"><tspan class="TextPosition" x="1404" y="7302"><tspan font-family="Liberation Sans, sans-serif" font-size="353px" font-weight="400" lengthAdjust="spacingAndGlyphs" textLength="1395" fill="rgb(0,0,0)" stroke="none" style="white-space: pre">1.00E-01</tspan></tspan></tspan></text>
 <text class="SVGTextShape"><tspan class="TextParagraph"><tspan class="TextPosition" x="1318" y="6484"><tspan font-family="Liberation Sans, sans-serif" font-size="353px" font-weight="400" lengthAdjust="spacingAndGlyphs" textLength="1482" fill="rgb(0,0,0)" stroke="none" style="white-space: pre">1.00E+00</tspan></tspan></tspan></text>
 <text class="SVGTextShape"><tspan class="TextParagraph"><tspan class="TextPosition" x="1318" y="5667"><tspan font-family="Liberation Sans, sans-serif" font-size="353px" font-weight="400" lengthAdjust="spacingAndGlyphs" textLength="1482" fill="rgb(0,0,0)" stroke="none" style="white-space: pre">1.00E+01</tspan></tspan></tspan></text>
 <text class="SVGTextShape"><tspan class="TextParagraph"><tspan class="TextPosition" x="1318" y="4849"><tspan font-family="Liberation Sans, sans-serif" font-size="353px" font-weight="400" lengthAdjust="spacingAndGlyphs" textLength="1482" fill="rgb(0,0,0)" stroke="none" style="white-space: pre">1.00E+02</tspan></tspan></tspan></text>
 <text class="SVGTextShape"><tspan class="TextParagraph"><tspan class="TextPosition" x="1318" y="4033"><tspan font-family="Liberation Sans, sans-serif" font-size="353px" font-weight="400" lengthAdjust="spacingAndGlyphs" textLength="1482" fill="rgb(0,0,0)" stroke="none" style="white-space: pre">1.00E+03</tspan></tspan></tspan></text>
 <text class="SVGTextShape"><tspan class="TextParagraph"><tspan class="TextPosition" x="1318" y="3215"><tspan font-family="Liberation Sans, sans-serif" font-size="353px" font-weight="400" lengthAdjust="spacingAndGlyphs" textLength="1482" fill="rgb(0,0,0)" stroke="none" style="white-space: pre">1.00E+04</tspan></tspan></tspan></text>
 <text class="SVGTextShape"><tspan class="TextParagraph"><tspan class="TextPosition" x="1318" y="2398"><tspan font-family="Liberation Sans, sans-serif" font-size="353px" font-weight="400" lengthAdjust="spacingAndGlyphs" textLength="1482" fill="rgb(0,0,0)" stroke="none" style="white-space: pre">1.00E+05</tspan></tspan></tspan></text>
 <text class="SVGTextShape"><tspan class="TextParagraph"><tspan class="TextPosition" x="1318" y="1580"><tspan font-family="Liberation Sans, sans-serif" font-size="353px" font-weight="400" lengthAdjust="spacingAndGlyphs" textLength="1482" fill="rgb(0,0,0)" stroke="none" style="white-space: pre">1.00E+06</tspan></tspan></tspan></text>
 <text class="SVGTextShape"><tspan class="TextParagraph"><tspan class="TextPosition" x="3985" y="838"><tspan font-family="Liberation Sans, sans-serif" font-size="459px" font-weight="400" lengthAdjust="spacingAndGlyphs" textLength="8000" fill="rgb(0,0,0)" stroke="none" style="white-space: pre">Execution time against number of qubits</tspan></tspan></tspan></text>
 <path fill="none" stroke="rgb(0,69,134)" stroke-width="60" stroke-linejoin="round" d="M 13016,4239 L 13816,4239 "/>
 <path fill="rgb(0,69,134)" stroke="none" d="M 13521,4239 L 13521,4234 13521,4230 13520,4225 13519,4221 13518,4216 13517,4212 13516,4207 13515,4203 13513,4199 13511,4194 13509,4190 13507,4186 13504,4182 13502,4178 13499,4175 13496,4171 13493,4168 13490,4164 13487,4161 13483,4158 13480,4155 13476,4153 13472,4150 13468,4148 13464,4145 13460,4143 13456,4142 13452,4140 13447,4138 13443,4137 13438,4136 13434,4135 13429,4134 13425,4134 13420,4134 13416,4134 13411,4134 13406,4134 13402,4134 13397,4135 13393,4136 13388,4137 13384,4138 13379,4140 13375,4142 13371,4143 13367,4145 13363,4148 13359,4150 13355,4153 13351,4155 13348,4158 13344,4161 13341,4164 13338,4168 13335,4171 13332,4175 13329,4178 13327,4182 13324,4186 13322,4190 13320,4194 13318,4199 13316,4203 13315,4207 13314,4212 13313,4216 13312,4221 13311,4225 13310,4230 13310,4234 13310,4239 13310,4244 13310,4248 13311,4253 13312,4257 13313,4262 13314,4266 13315,4271 13316,4275 13318,4279 13320,4284 13322,4288 13324,4292 13327,4296 13329,4300 13332,4303 13335,4307 13338,4310 13341,4314 13344,4317 13348,4320 13351,4323 13355,4325 13359,4328 13363,4330 13367,4333 13371,4335 13375,4336 13379,4338 13384,4340 13388,4341 13393,4342 13397,4343 13402,4344 13406,4344 13411,4344 13416,4345 13420,4344 13425,4344 13429,4344 13434,4343 13438,4342 13443,4341 13447,4340 13452,4338 13456,4336 13460,4335 13464,4333 13468,4330 13472,4328 13476,4325 13480,4323 13483,4320 13487,4317 13490,4314 13493,4310 13496,4307 13499,4303 13502,4300 13504,4296 13507,4292 13509,4288 13511,4284 13513,4279 13515,4275 13516,4271 13517,4266 13518,4262 13519,4257 13520,4253 13521,4248 13521,4244 13521,4239 Z "/>
 <path fill="none" stroke="rgb(0,69,134)" stroke-linejoin="round" d="M 13521,4239 L 13521,4234 13521,4230 13520,4225 13519,4221 13518,4216 13517,4212 13516,4207 13515,4203 13513,4199 13511,4194 13509,4190 13507,4186 13504,4182 13502,4178 13499,4175 13496,4171 13493,4168 13490,4164 13487,4161 13483,4158 13480,4155 13476,4153 13472,4150 13468,4148 13464,4145 13460,4143 13456,4142 13452,4140 13447,4138 13443,4137 13438,4136 13434,4135 13429,4134 13425,4134 13420,4134 13416,4134 13411,4134 13406,4134 13402,4134 13397,4135 13393,4136 13388,4137 13384,4138 13379,4140 13375,4142 13371,4143 13367,4145 13363,4148 13359,4150 13355,4153 13351,4155 13348,4158 13344,4161 13341,4164 13338,4168 13335,4171 13332,4175 13329,4178 13327,4182 13324,4186 13322,4190 13320,4194 13318,4199 13316,4203 13315,4207 13314,4212 13313,4216 13312,4221 13311,4225 13310,4230 13310,4234 13310,4239 13310,4244 13310,4248 13311,4253 13312,4257 13313,4262 13314,4266 13315,4271 13316,4275 13318,4279 13320,4284 13322,4288 13324,4292 13327,4296 13329,4300 13332,4303 13335,4307 13338,4310 13341,4314 13344,4317 13348,4320 13351,4323 13355,4325 13359,4328 13363,4330 13367,4333 13371,4335 13375,4336 13379,4338 13384,4340 13388,4341 13393,4342 13397,4343 13402,4344 13406,4344 13411,4344 13416,4345 13420,4344 13425,4344 13429,4344 13434,4343 13438,4342 13443,4341 13447,4340 13452,4338 13456,4336 13460,4335 13464,4333 13468,4330 13472,4328 13476,4325 13480,4323 13483,4320 13487,4317 13490,4314 13493,4310 13496,4307 13499,4303 13502,4300 13504,4296 13507,4292 13509,4288 13511,4284 13513,4279 13515,4275 13516,4271 13517,4266 13518,4262 13519,4257 13520,4253 13521,4248 13521,4244 13521,4239 Z "/>
 <path fill="none" stroke="rgb(255,66,14)" stroke-width="60" stroke-linejoin="round" d="M 13016,4736 L 13816,4736 "/>
 <path fill="rgb(255,66,14)" stroke="none" d="M 13521,4736 L 13521,4731 13521,4727 13520,4722 13519,4718 13518,4713 13517,4709 13516,4704 13515,4700 13513,4696 13511,4691 13509,4687 13507,4683 13504,4679 13502,4675 13499,4672 13496,4668 13493,4665 13490,4661 13487,4658 13483,4655 13480,4652 13476,4650 13472,4647 13468,4645 13464,4642 13460,4640 13456,4639 13452,4637 13447,4635 13443,4634 13438,4633 13434,4632 13429,4631 13425,4631 13420,4631 13416,4631 13411,4631 13406,4631 13402,4631 13397,4632 13393,4633 13388,4634 13384,4635 13379,4637 13375,4639 13371,4640 13367,4642 13363,4645 13359,4647 13355,4650 13351,4652 13348,4655 13344,4658 13341,4661 13338,4665 13335,4668 13332,4672 13329,4675 13327,4679 13324,4683 13322,4687 13320,4691 13318,4696 13316,4700 13315,4704 13314,4709 13313,4713 13312,4718 13311,4722 13310,4727 13310,4731 13310,4736 13310,4741 13310,4745 13311,4750 13312,4754 13313,4759 13314,4763 13315,4768 13316,4772 13318,4776 13320,4781 13322,4785 13324,4789 13327,4793 13329,4797 13332,4800 13335,4804 13338,4807 13341,4811 13344,4814 13348,4817 13351,4820 13355,4822 13359,4825 13363,4827 13367,4830 13371,4832 13375,4833 13379,4835 13384,4837 13388,4838 13393,4839 13397,4840 13402,4841 13406,4841 13411,4841 13416,4842 13420,4841 13425,4841 13429,4841 13434,4840 13438,4839 13443,4838 13447,4837 13452,4835 13456,4833 13460,4832 13464,4830 13468,4827 13472,4825 13476,4822 13480,4820 13483,4817 13487,4814 13490,4811 13493,4807 13496,4804 13499,4800 13502,4797 13504,4793 13507,4789 13509,4785 13511,4781 13513,4776 13515,4772 13516,4768 13517,4763 13518,4759 13519,4754 13520,4750 13521,4745 13521,4741 13521,4736 Z "/>
 <path fill="none" stroke="rgb(255,66,14)" stroke-linejoin="round" d="M 13521,4736 L 13521,4731 13521,4727 13520,4722 13519,4718 13518,4713 13517,4709 13516,4704 13515,4700 13513,4696 13511,4691 13509,4687 13507,4683 13504,4679 13502,4675 13499,4672 13496,4668 13493,4665 13490,4661 13487,4658 13483,4655 13480,4652 13476,4650 13472,4647 13468,4645 13464,4642 13460,4640 13456,4639 13452,4637 13447,4635 13443,4634 13438,4633 13434,4632 13429,4631 13425,4631 13420,4631 13416,4631 13411,4631 13406,4631 13402,4631 13397,4632 13393,4633 13388,4634 13384,4635 13379,4637 13375,4639 13371,4640 13367,4642 13363,4645 13359,4647 13355,4650 13351,4652 13348,4655 13344,4658 13341,4661 13338,4665 13335,4668 13332,4672 13329,4675 13327,4679 13324,4683 13322,4687 13320,4691 13318,4696 13316,4700 13315,4704 13314,4709 13313,4713 13312,4718 13311,4722 13310,4727 13310,4731 13310,4736 13310,4741 13310,4745 13311,4750 13312,4754 13313,4759 13314,4763 13315,4768 13316,4772 13318,4776 13320,4781 13322,4785 13324,4789 13327,4793 13329,4797 13332,4800 13335,4804 13338,4807 13341,4811 13344,4814 13348,4817 13351,4820 13355,4822 13359,4825 13363,4827 13367,4830 13371,4832 13375,4833 13379,4835 13384,4837 13388,4838 13393,4839 13397,4840 13402,4841 13406,4841 13411,4841 13416,4842 13420,4841 13425,4841 13429,4841 13434,4840 13438,4839 13443,4838 13447,4837 13452,4835 13456,4833 13460,4832 13464,4830 13468,4827 13472,4825 13476,4822 13480,4820 13483,4817 13487,4814 13490,4811 13493,4807 13496,4804 13499,4800 13502,4797 13504,4793 13507,4789 13509,4785 13511,4781 13513,4776 13515,4772 13516,4768 13517,4763 13518,4759 13519,4754 13520,4750 13521,4745 13521,4741 13521,4736 Z "/>
 <text class="SVGTextShape"><tspan class="TextParagraph"><tspan class="TextPosition" x="13916" y="4359"><tspan font-family="Liberation Sans, sans-serif" font-size="353px" font-weight="400" lengthAdjust="spacingAndGlyphs" textLength="1414" fill="rgb(0,0,0)" stroke="none" style="white-space: pre">Stabilizer</tspan></tspan></tspan></text>
 <text class="SVGTextShape"><tspan class="TextParagraph"><tspan class="TextPosition" x="13916" y="4856"><tspan font-family="Liberation Sans, sans-serif" font-size="353px" font-weight="400" lengthAdjust="spacingAndGlyphs" textLength="1739" fill="rgb(0,0,0)" stroke="none" style="white-space: pre">Statevector</tspan></tspan></tspan></text>
 <text class="SVGTextShape"><tspan class="TextParagraph"><tspan class="TextPosition" x="5740" y="8396"><tspan font-family="Liberation Sans, sans-serif" font-size="318px" font-weight="400" lengthAdjust="spacingAndGlyphs" textLength="2417" fill="rgb(0,0,0)" stroke="none" style="white-space: pre">Number of qubits</tspan></tspan></tspan></text>
 <text class="SVGTextShape" transform="rotate(-90 824 5906)"><tspan class="TextParagraph"><tspan class="TextPosition" x="824" y="5906"><tspan font-family="Liberation Sans, sans-serif" font-size="318px" font-weight="400" lengthAdjust="spacingAndGlyphs" textLength="2723" fill="rgb(0,0,0)" stroke="none" style="white-space: pre">Execution time (μs)</tspan></tspan></tspan></text>
</svg>